<?xml version="1.0" standalone="no"?>
<!DOCTYPE svg PUBLIC "-//W3C//DTD SVG 20010904//EN"
 "http://www.w3.org/TR/2001/REC-SVG-20010904/DTD/svg10.dtd">
<svg version="1.0" xmlns="http://www.w3.org/2000/svg"
 width="2086.000000pt" height="3257.000000pt" viewBox="0 0 2086.000000 3257.000000"
 preserveAspectRatio="xMidYMid meet">
<metadata>
Created by potrace 1.13, written by Peter Selinger 2001-2015
</metadata>
<g transform="translate(0.000000,3257.000000) scale(0.100000,-0.100000)"
fill="#000000" stroke="none">
<path d="M12945 32439 c-455 -44 -860 -359 -1119 -868 -85 -168 -110 -231
-146 -375 -103 -404 -3 -807 322 -1291 40 -60 155 -221 255 -356 211 -286 303
-424 402 -605 188 -344 341 -796 341 -1005 l0 -61 53 48 c184 167 652 394
1077 522 202 61 315 86 680 152 698 126 999 248 1256 506 206 207 345 503 410
869 20 111 19 457 -1 562 -82 433 -377 772 -784 904 -250 80 -509 77 -772 -11
-220 -73 -383 -171 -601 -361 -41 -35 -48 -38 -48 -21 0 11 -5 66 -10 123 -40
389 -177 706 -405 935 -194 195 -424 305 -696 334 -103 11 -100 11 -214 -1z"/>
<path d="M8465 28089 c-456 -55 -923 -258 -1305 -567 -246 -200 -520 -513
-712 -814 -60 -93 -168 -285 -194 -345 -14 -32 -54 -116 -89 -188 -73 -149
-114 -251 -155 -379 -227 -715 -153 -1407 232 -2163 185 -363 366 -637 853
-1293 412 -554 481 -654 660 -950 461 -761 800 -1668 847 -2262 l12 -149 70
69 c180 175 439 339 871 552 359 177 648 297 1030 427 489 166 782 238 1455
358 448 80 656 120 886 171 796 175 1339 428 1749 814 219 206 367 401 510
674 160 305 305 753 371 1145 22 137 24 169 24 537 0 431 -5 489 -71 740 -76
292 -222 596 -405 841 -78 104 -278 309 -384 393 -808 644 -1929 679 -2898 92
-211 -129 -392 -266 -584 -443 l-97 -89 -5 52 c-3 29 -8 98 -11 153 -36 659
-269 1304 -636 1762 -364 456 -862 751 -1429 848 -114 20 -477 28 -595 14z"/>
<path d="M14730 18429 c-417 -42 -667 -91 -1010 -196 -546 -166 -1077 -443
-1549 -807 -373 -287 -740 -662 -1027 -1046 -554 -744 -947 -1636 -1158 -2630
-15 -69 -29 -131 -32 -138 -2 -8 -48 46 -106 125 -860 1166 -1888 1973 -3048
2389 -359 129 -730 213 -1175 266 -177 21 -796 18 -960 -5 -203 -29 -306 -47
-355 -62 -25 -8 -72 -17 -105 -20 -159 -16 -513 -125 -830 -255 -109 -45 -419
-204 -535 -275 -786 -478 -1399 -1151 -1822 -2000 -313 -627 -498 -1281 -588
-2075 -28 -244 -44 -831 -31 -1111 14 -285 37 -553 55 -653 28 -153 56 -321
66 -401 57 -464 149 -838 315 -1280 76 -201 136 -339 222 -509 684 -1352 1884
-2307 3917 -3118 158 -63 717 -271 924 -344 103 -37 257 -91 342 -121 85 -30
218 -77 295 -103 77 -27 212 -74 300 -105 88 -31 234 -83 325 -115 429 -151
891 -333 1220 -480 310 -138 341 -153 580 -271 1270 -629 2518 -1485 3290
-2259 250 -251 443 -480 542 -645 18 -30 36 -55 40 -55 5 0 8 19 8 41 0 116
91 452 197 729 484 1262 1619 3008 2830 4357 313 349 549 587 1493 1503 1122
1091 1616 1644 2081 2330 432 638 741 1311 878 1915 17 77 41 178 53 225 11
47 24 126 29 175 4 50 17 153 29 230 41 269 39 816 -5 1165 -57 449 -200 1065
-355 1520 -80 235 -179 495 -250 655 -10 22 -32 74 -50 115 -36 83 -179 372
-236 477 -406 748 -934 1383 -1549 1864 -462 361 -1030 655 -1580 819 -262 77
-499 126 -815 166 -145 18 -724 27 -860 13z"/>
</g>
</svg>
