<?xml version="1.0" encoding="UTF-8" standalone="no"?>
<svg
   xmlns:dc="http://purl.org/dc/elements/1.1/"
   xmlns:cc="http://creativecommons.org/ns#"
   xmlns:rdf="http://www.w3.org/1999/02/22-rdf-syntax-ns#"
   xmlns:svg="http://www.w3.org/2000/svg"
   xmlns="http://www.w3.org/2000/svg"
   xmlns:sodipodi="http://sodipodi.sourceforge.net/DTD/sodipodi-0.dtd"
   xmlns:inkscape="http://www.inkscape.org/namespaces/inkscape"
   version="1.1"
   x="0px"
   y="0px"
   viewBox="0 0 100 125"
   enable-background="new 0 0 100 100"
   xml:space="preserve"
   id="svg4522"
   sodipodi:docname="noun-project-upright-bass-by-angela-gasparetti_cc.svg"
   inkscape:version="0.92.0 r15299"><metadata
     id="metadata4528"><rdf:RDF><cc:Work
         rdf:about=""><dc:format>image/svg+xml</dc:format><dc:type
           rdf:resource="http://purl.org/dc/dcmitype/StillImage" /></cc:Work></rdf:RDF></metadata><defs
     id="defs4526" /><sodipodi:namedview
     pagecolor="#ffffff"
     bordercolor="#666666"
     borderopacity="1"
     objecttolerance="10"
     gridtolerance="10"
     guidetolerance="10"
     inkscape:pageopacity="0"
     inkscape:pageshadow="2"
     inkscape:window-width="1366"
     inkscape:window-height="705"
     id="namedview4524"
     showgrid="false"
     inkscape:zoom="1.888"
     inkscape:cx="50"
     inkscape:cy="62.5"
     inkscape:window-x="-8"
     inkscape:window-y="-8"
     inkscape:window-maximized="1"
     inkscape:current-layer="svg4522" /><path
     d="M86.1,10.8l1.7-2.4c0.3-0.4,0.5-1.5-0.2-2L86,5.1c-1-0.7-2.1,0.1-2.4,0.5l-1.6,2.2c-0.2,0.3-0.2,0.8,0.1,1l-0.8,1l-0.5-0.4  l0.1-0.1c0.3-0.4,0.2-1.1-0.3-1.4c-0.5-0.4-1.1-0.3-1.5,0.1l-0.5,0.7c-0.3,0.4-0.2,1.1,0.3,1.4c0.5,0.4,1.1,0.3,1.5-0.1l0,0l0.5,0.4  L78.7,13l-0.4-0.3l0.1-0.1c0.3-0.4,0.2-1.1-0.3-1.4c-0.5-0.4-1.1-0.3-1.5,0.1l-0.5,0.7c-0.3,0.4-0.2,1.1,0.3,1.4  c0.5,0.4,1.1,0.3,1.5-0.1l0.1-0.1l0.4,0.3l-1.2,1.4c0,0-0.8,0.9-0.2,1.8L60.4,37.4c-1.3,0.5-3.9,0.9-9.3,0.3  c-9.5-1.2-12.5,6.2-13.6,9.1c-1.1,2.9-2.6,2.5-2.6,2.5s3.2,3.5-1.6,7.5c-4.8,4-5.8,2.8-7.3,2c0,0-0.8,1.5-2.8,1.6  c-2,0.2-11.1,5-10.4,14c0.6,7.7,6.4,12.8,8.6,14.5c-0.3,0.3-0.2,0.8,0.3,1.3l0.3,0.3c0.4,0.3,1,0.4,1.3,0c0,0,0,0,0-0.1  c2.5,1.9,8.4,5.7,15.6,4.5c8.9-1.4,11.5-11.4,11.2-13.4c-0.3-2,0.9-3.1,0.9-3.1c-1.2-1.3-2.5-2,0.2-7.5c2.8-5.5,6.9-3.3,6.9-3.3  s-0.8-1.3,1.8-3.1c2.6-1.8,9-6.4,5.7-15.4c-2-5.4-2.1-8-1.9-9.3c7.3-9.9,14.8-19.9,15.8-21.3c0.9,0.1,1.4-0.7,1.4-0.7l1.1-1.7  l0.4,0.3l-0.1,0.1c-0.3,0.4-0.1,1.1,0.4,1.4c0.5,0.3,1.1,0.2,1.4-0.2l0.5-0.7c0.3-0.4,0.1-1.1-0.4-1.4c-0.5-0.3-1.1-0.2-1.4,0.2l0,0  l-0.4-0.3l1.9-2.9l0.4,0.3l0,0.1c-0.3,0.4-0.1,1.1,0.4,1.4c0.5,0.3,1.1,0.2,1.4-0.2l0.5-0.7c0.3-0.4,0.1-1.1-0.4-1.4  c-0.5-0.3-1.1-0.2-1.4,0.2l0,0.1l-0.4-0.3l0.7-1C85.6,11.1,85.9,11,86.1,10.8z M25.9,65.5c-0.1-0.6-0.3-2.9,1.1-2.5  c1.6,1.3-1.4,1.2-0.8,2.2c3.8,2.3,7.1-7,10.9-6.7c1.2,1,2.3,2,0.8,3.1c-1.7-0.7,1.3-1.5-0.4-2.2C33.6,60.3,30,69,25.9,65.5z   M42,71.6c-0.3,0.4-0.7,0.5-1,0.3l-6-4.6c-0.3-0.2-0.3-0.7,0-1.1c0.3-0.4,0.7-0.5,1-0.3l6,4.6C42.3,70.8,42.3,71.2,42,71.6z   M45.2,79.6c1.1,0.3,0.2-2.5,1.9-1.4c0.7,1.3-1.5,1.6-2.2,1.7c-4.5-3.1,3.2-8.7,3.1-12.7c-1.1-1.5-1.1,1.6-2.2,0.1  c0.7-1.8,1.9-1,3.2,0C50.3,70.9,42.1,76.5,45.2,79.6z"
     id="path4516" /></svg>