<?xml version="1.0" encoding="UTF-8" standalone="no"?>
<svg
   xmlns:dc="http://purl.org/dc/elements/1.1/"
   xmlns:cc="http://creativecommons.org/ns#"
   xmlns:rdf="http://www.w3.org/1999/02/22-rdf-syntax-ns#"
   xmlns:svg="http://www.w3.org/2000/svg"
   xmlns="http://www.w3.org/2000/svg"
   xmlns:sodipodi="http://sodipodi.sourceforge.net/DTD/sodipodi-0.dtd"
   xmlns:inkscape="http://www.inkscape.org/namespaces/inkscape"
   version="1.1"
   x="0px"
   y="0px"
   viewBox="0 0 100 125"
   enable-background="new 0 0 100 100"
   xml:space="preserve"
   id="svg16"
   sodipodi:docname="noun-project-guitar-by-Okan-Benn_cc.svg"
   inkscape:version="0.92.0 r15299"><metadata
     id="metadata22"><rdf:RDF><cc:Work
         rdf:about=""><dc:format>image/svg+xml</dc:format><dc:type
           rdf:resource="http://purl.org/dc/dcmitype/StillImage" /></cc:Work></rdf:RDF></metadata><defs
     id="defs20" /><sodipodi:namedview
     pagecolor="#ffffff"
     bordercolor="#666666"
     borderopacity="1"
     objecttolerance="10"
     gridtolerance="10"
     guidetolerance="10"
     inkscape:pageopacity="0"
     inkscape:pageshadow="2"
     inkscape:window-width="1366"
     inkscape:window-height="705"
     id="namedview18"
     showgrid="false"
     inkscape:zoom="4.192"
     inkscape:cx="50"
     inkscape:cy="62.5"
     inkscape:window-x="-8"
     inkscape:window-y="-8"
     inkscape:window-maximized="1"
     inkscape:current-layer="svg16" /><path
     d="M42.306,78.192c0.298,0.21,0.359,0.599,0.149,0.896c-0.209,0.3-0.599,0.36-0.898,0.151c-0.299-0.21-0.357-0.599-0.148-0.898  C41.617,78.043,42.006,77.983,42.306,78.192z M28.664,69.427c-0.21,0.3-0.15,0.688,0.149,0.897c0.298,0.21,0.688,0.15,0.897-0.148  c0.21-0.3,0.15-0.688-0.148-0.898C29.263,69.067,28.874,69.128,28.664,69.427z M88.436,5.826L86.7,8.22l0.658,0.449  c0.269-0.209,0.599-0.27,0.809-0.089c0.298,0.208,0.327,0.717,0.029,1.136c-0.3,0.418-0.778,0.599-1.077,0.389  c-0.239-0.15-0.299-0.479-0.18-0.809l-0.658-0.448l-1.615,2.245l0.599,0.417c0.269-0.209,0.598-0.269,0.808-0.09  c0.299,0.21,0.329,0.719,0.029,1.138c-0.299,0.418-0.777,0.598-1.077,0.389c-0.238-0.149-0.298-0.479-0.179-0.808l-0.628-0.419  l-1.646,2.303l0.627,0.449c0.271-0.209,0.6-0.269,0.809-0.089c0.3,0.208,0.329,0.718,0.03,1.137  c-0.299,0.418-0.778,0.598-1.077,0.389c-0.24-0.15-0.299-0.479-0.18-0.808l-0.658-0.448l-0.389,0.538  c-0.539,0.719-1.915,0.449-2.483,1.317L56.964,48.846c9.154,5.952,9.363,14.868-1.017,20.373c-3.92,2.062-2.453,6.431-2.634,11.277  c-0.119,2.752-0.238,5.685-1.973,9.244c-2.873,5.953-9.185,8.466-13.882,8.795c-4.488,0.329-9.783-2.064-14.21-5.205  c-6.611-4.697-16.095-14.868-9.573-25.698c2.423-4.008,6.88-6.312,10.68-7.748c1.525-0.568,8.795-2.243,9.513-6.281  c0.537-2.992,1.586-6.224,2.902-8.167c1.315-1.975,5.415-4.577,9.273-3.052c0.838,0.329,2.123,0.718,6.342,2.961l-0.089-0.119  l23.035-31.53c0.537-0.749-0.061-1.886,0.389-2.543l0.508-0.718l-0.628-0.449c-0.269,0.209-0.599,0.24-0.808,0.089  c-0.3-0.208-0.3-0.717,0-1.136c0.299-0.419,0.777-0.568,1.076-0.358c0.21,0.148,0.3,0.479,0.181,0.807l0.598,0.419l1.586-2.334  l-0.599-0.418c-0.269,0.21-0.599,0.239-0.809,0.09c-0.298-0.209-0.298-0.718,0-1.137c0.3-0.418,0.778-0.569,1.077-0.359  c0.21,0.15,0.3,0.479,0.18,0.809l0.599,0.418L80.238,4.6l-0.657-0.449c-0.271,0.209-0.599,0.239-0.809,0.09  c-0.3-0.209-0.3-0.719,0-1.137c0.299-0.418,0.778-0.568,1.077-0.359c0.21,0.15,0.299,0.479,0.18,0.808l0.628,0.448l1.556-2.243  C83.289,0.202,89.272,4.689,88.436,5.826z M43.98,78.163L29.083,67.722c-0.119-0.06-0.269-0.06-0.329,0.06l-1.675,2.395  c-0.06,0.119-0.06,0.269,0.06,0.327l3.021,2.125c2.243,3.29,5.266,5.266,8.915,6.223l2.961,2.094  c0.121,0.061,0.271,0.061,0.33-0.059l1.676-2.395C44.101,78.372,44.101,78.222,43.98,78.163z M49.246,54.738  c-3.021-2.124-7.211-1.376-9.334,1.646c-2.125,3.021-1.376,7.21,1.645,9.334c3.022,2.124,7.211,1.376,9.335-1.646  C53.015,61.051,52.268,56.862,49.246,54.738z M48.438,55.905c-2.394-1.676-5.685-1.107-7.36,1.286  c-1.675,2.394-1.105,5.685,1.287,7.359c2.393,1.676,5.684,1.106,7.359-1.286C51.399,60.871,50.831,57.581,48.438,55.905z"
     id="path10" /></svg>