<?xml version="1.0" encoding="UTF-8" standalone="no"?>
<svg
   xmlns:dc="http://purl.org/dc/elements/1.1/"
   xmlns:cc="http://creativecommons.org/ns#"
   xmlns:rdf="http://www.w3.org/1999/02/22-rdf-syntax-ns#"
   xmlns:svg="http://www.w3.org/2000/svg"
   xmlns="http://www.w3.org/2000/svg"
   xmlns:sodipodi="http://sodipodi.sourceforge.net/DTD/sodipodi-0.dtd"
   xmlns:inkscape="http://www.inkscape.org/namespaces/inkscape"
   version="1.1"
   x="0px"
   y="0px"
   viewBox="0 0 100 125"
   enable-background="new 0 0 100 100"
   xml:space="preserve"
   id="svg4498"
   sodipodi:docname="noun-project-mandolin-by-catherine-please_cc.svg"
   inkscape:version="0.92.0 r15299"><metadata
     id="metadata4504"><rdf:RDF><cc:Work
         rdf:about=""><dc:format>image/svg+xml</dc:format><dc:type
           rdf:resource="http://purl.org/dc/dcmitype/StillImage" /></cc:Work></rdf:RDF></metadata><defs
     id="defs4502" /><sodipodi:namedview
     pagecolor="#ffffff"
     bordercolor="#666666"
     borderopacity="1"
     objecttolerance="10"
     gridtolerance="10"
     guidetolerance="10"
     inkscape:pageopacity="0"
     inkscape:pageshadow="2"
     inkscape:window-width="1366"
     inkscape:window-height="705"
     id="namedview4500"
     showgrid="false"
     inkscape:zoom="1.888"
     inkscape:cx="50"
     inkscape:cy="62.5"
     inkscape:window-x="-8"
     inkscape:window-y="-8"
     inkscape:window-maximized="1"
     inkscape:current-layer="svg4498" /><path
     d="M85.73,9.651c-0.494-0.236-0.992-0.469-1.49-0.704c-0.463,0.46-0.943,0.931-1.42,1.404  c-3.541,3.535-7.271,6.849-11.416,9.674c-0.402,0.274-0.582,0.586-0.562,1.06c0.031,0.777,0.059,1.556,0.047,2.333  c-0.02,1.328-0.465,2.824-1.256,3.941c-0.01,0.016,0.064,0.107,0.195,0.246l0.342-0.328l3.176-5.767  c-0.107-0.074-0.219-0.196-0.34-0.363c0.391-0.011,0.779-0.022,1.168-0.034c-0.244-0.213-0.49-0.426-0.76-0.659  c-0.057,0.062-0.131,0.146-0.295,0.332c0.012-0.324-0.027-0.558,0.049-0.74c0.045-0.106,0.287-0.193,0.43-0.179  c0.264,0.028,0.533,0.104,0.773,0.219c0.18,0.084,0.41,0.244,0.441,0.405c0.029,0.154-0.148,0.366-0.27,0.526  c-0.084,0.112-0.225,0.18-0.344,0.265c-0.002,0.002-0.033-0.025-0.039-0.043s0.002-0.04,0.004-0.06  c-0.234,0.316-0.436,0.453-0.641,0.41l-3.199,5.806l-0.012,0.01l-0.352,0.34c0.049,0.051,0.105,0.105,0.162,0.163l0.342-0.336  l5.721-8.363c-0.184-0.029-0.377-0.145-0.553-0.399c0.4,0.021,0.711,0.038,1.014,0.054c0.326-1.059-0.344-0.816-1.033-0.851  c0.127-0.191,0.309-0.563,0.371-0.543c0.445,0.136,0.867,0.35,1.295,0.539c-0.164,0.349-0.246,0.795-0.512,1.018  c-0.096,0.079-0.213,0.145-0.344,0.174l-5.811,8.496l-0.008,0.006l-0.346,0.343c0.096,0.096,0.199,0.199,0.309,0.305l0.338-0.333  l7.871-11.18c-0.113-0.064-0.234-0.186-0.373-0.364c0.359-0.03,0.707-0.06,1.055-0.089c0.002-0.005,0.006-0.01,0.008-0.016  c-0.035-0.108-0.113-0.231-0.082-0.3c0.053-0.109,0.113-0.212,0.18-0.314c-0.076,0.055-0.186,0.061-0.357-0.028  c-0.203-0.105-0.469-0.095-0.707-0.136c-0.012-0.529,0.303-0.672,0.979-0.316c0.098,0.053,0.201,0.098,0.305,0.146  c0,0,0,0.001,0.002,0.003c0.002-0.001,0.002-0.001,0.002-0.001s0,0-0.002,0.001c0.643,0.488,0.07,0.809-0.182,1.227  c-0.055-0.118-0.094-0.2-0.135-0.283c0,0,0,0-0.002,0.001c0.002,0.004,0.004,0.011,0.006,0.015c-0.004,0-0.01,0.001-0.014,0.001  c-0.16,0.324-0.312,0.492-0.482,0.504l-7.922,11.256l-0.006,0.005l-0.342,0.335c0.057,0.053,0.109,0.106,0.164,0.16l0.33-0.329  l10.381-13.974c-0.117-0.079-0.229-0.202-0.336-0.383c0.623,0.285,1.018,0.139,1.16-0.611c-0.336,0.005-0.689,0.011-1.232,0.018  c0.189-0.291,0.281-0.564,0.471-0.688c0.197-0.13,1.188,0.374,1.26,0.581c0.18,0.512-0.23,0.774-0.521,1.004  c-0.193,0.151-0.41,0.224-0.621,0.163L71.346,28.443l-0.004,0.005l-0.33,0.33c0.055,0.052,0.109,0.105,0.162,0.157l0.324-0.327  l11.148-10.715c-0.004-0.002-0.004-0.005-0.008-0.007c0.311-0.307,0.611-0.624,0.934-0.918c0.32-0.295,0.586-0.585,0.537-1.08  c-0.041-0.376,0.219-0.528,0.559-0.399c0.35,0.132,0.857,0.258,0.953,0.515c0.096,0.256-0.16,0.745-0.404,0.992  c-0.17,0.173-0.58,0.142-0.881,0.135c-0.111-0.003-0.221-0.12-0.365-0.24L71.633,28.747l-0.318,0.322  c0.055,0.052,0.109,0.106,0.164,0.157l0.314-0.32l0.004-0.002l9.941-8.932c0.158-0.213,0.273-0.484,0.32-0.737  c0.084-0.435,0.281-0.544,0.68-0.455c0.996,0.226,1.146,0.528,0.65,1.329c-0.275,0.44-0.748,0.582-1.137,0.251  c-0.191-0.162-0.338-0.202-0.475-0.163l-0.986,0.886c-0.504,0.5-1.559,1.455-1.58,1.433c0.051-0.051,0.1-0.101,0.152-0.152  l-7.436,6.681l-0.309,0.313c0.051,0.049,0.102,0.097,0.15,0.143l0.305-0.315l0.006-0.004l7.145-5.643  c0.145-0.148,0.289-0.297,0.43-0.45c0.182-0.194,0.305-0.499,0.334-0.767c0.053-0.466,0.197-0.653,0.658-0.416  c0.053,0.027,0.117,0.034,0.166,0.068c0.268,0.171,0.775,0.416,0.748,0.511c-0.098,0.361-0.307,0.769-0.602,0.974  c-0.191,0.132-0.604-0.083-0.922-0.101c-0.082-0.005-0.176-0.009-0.266-0.005l-1.318,1.042c-0.213,0.212-0.549,0.448-0.477,0.375  l-5.77,4.559l-0.297,0.305c0.082,0.079,0.158,0.152,0.227,0.217l0.297-0.308l0.01-0.005l5.295-3.495  c0.076-0.172,0.16-0.34,0.18-0.515c0.074-0.686,0.285-0.803,0.879-0.442c0.006-0.004,0.01-0.009,0.014-0.012  c0.004,0.008,0.01,0.018,0.014,0.026c0.26,0.094,0.725,0.227,0.715,0.277c-0.061,0.356-0.146,0.764-0.379,1.018  c-0.17,0.187-0.566,0.198-0.867,0.216c-0.117,0.008-0.244-0.18-0.408-0.313c0.453-0.233,0.85-0.437,1.252-0.644  c-0.074-0.133-0.191-0.342-0.312-0.554c-0.004-0.002-0.008-0.003-0.01-0.004c-0.006-0.003-0.012-0.006-0.018-0.009  c-0.289,0.285-0.576,0.57-0.863,0.855l0.094,0.144l-5.469,3.609l-0.281,0.291c0.09,0.084,0.152,0.145,0.178,0.17  c0.701-0.539,1.367-1.049,2.15-1.651c-0.193,0.244-0.291,0.368-0.285,0.361c0.859-0.054,1.807-0.117,2.752-0.167  c0.328-0.017,0.664-0.043,0.982,0.011c0.518,0.089,0.801-0.161,1.031-0.567c0.754-1.334,1.488-2.683,2.285-3.991  c2.088-3.428,4.244-6.812,6.803-9.917c0.338-0.411,0.5-0.779,0.104-1.278c-0.217-0.274-0.258-0.685-0.404-1.021  C87.424,10.93,86.742,10.134,85.73,9.651z"
     id="path3732" /><path
     d="M79.785,15.424L79.785,15.424c-0.07,0.111-0.146,0.22-0.221,0.331C79.664,15.688,79.715,15.543,79.785,15.424z"
     id="path3734" /><path
     d="M69.096,27.933c-0.697,0.692-1.396,1.309-2.064,1.97c0.057,0.057,0.127,0.127,0.207,0.208l2.051-1.983  C69.215,28.052,69.148,27.985,69.096,27.933z"
     id="path3736" /><path
     d="M69.59,28.431c-0.057-0.058-0.113-0.114-0.164-0.167l-2.053,1.984c0.059,0.058,0.119,0.121,0.182,0.184L69.59,28.431z"
     id="path3738" /><path
     d="M68.314,31.203l2.018-2.019c-0.055-0.057-0.107-0.111-0.162-0.166l-2.031,2.005C68.197,31.083,68.256,31.144,68.314,31.203z  "
     id="path3740" /><path
     d="M69.361,32.261c0.082,0.084,0.16,0.163,0.234,0.236l1.979-2.058c-0.07-0.071-0.145-0.148-0.225-0.226L69.361,32.261z"
     id="path3742" /><path
     d="M69.918,32.823c0.678-0.673,1.326-1.313,2.027-2.008c-0.066-0.065-0.143-0.147-0.232-0.237l-1.98,2.058  C69.805,32.707,69.865,32.771,69.918,32.823z"
     id="path3744" /><path
     d="M68.004,30.885l2.029-2.005c-0.107-0.108-0.209-0.212-0.307-0.31l-2.035,2C67.791,30.671,67.896,30.777,68.004,30.885z"
     id="path3746" /><path
     d="M68.928,31.821l2.002-2.037c-0.055-0.053-0.109-0.108-0.164-0.163l-2.008,2.027C68.812,31.707,68.873,31.765,68.928,31.821z  "
     id="path3748" /><path
     d="M69.225,32.124l1.99-2.048c-0.051-0.05-0.1-0.101-0.15-0.153l-2,2.037C69.119,32.016,69.174,32.07,69.225,32.124z"
     id="path3750" /><path
     d="M68.621,31.511l2.01-2.027c-0.055-0.054-0.107-0.108-0.16-0.162l-2.018,2.02C68.508,31.398,68.564,31.455,68.621,31.511z"
     id="path3752" /><path
     d="M65.865,37.094c0.615-0.609,1.189-1.176,1.777-1.762c-0.062-0.067-0.15-0.154-0.256-0.261l-1.736,1.806  C65.738,36.967,65.811,37.041,65.865,37.094z"
     id="path3754" /><path
     d="M65.145,32.801c-0.07-0.071-0.137-0.139-0.199-0.203l-1.803,1.741c0.068,0.067,0.141,0.141,0.217,0.217L65.145,32.801z"
     id="path3756" /><path
     d="M65.598,33.26c-0.109-0.111-0.215-0.219-0.316-0.322l-1.787,1.756c0.104,0.104,0.211,0.213,0.322,0.325L65.598,33.26z"
     id="path3758" /><path
     d="M65.264,36.485c0.09,0.092,0.172,0.178,0.25,0.254l1.738-1.806c-0.076-0.076-0.158-0.159-0.244-0.246L65.264,36.485z"
     id="path3760" /><path
     d="M65.928,33.595c-0.064-0.066-0.129-0.132-0.193-0.197l-1.783,1.759c0.068,0.07,0.137,0.14,0.207,0.21L65.928,33.595z"
     id="path3762" /><path
     d="M64.477,35.688l1.764-1.778c-0.059-0.058-0.117-0.118-0.176-0.177l-1.77,1.771C64.355,35.566,64.416,35.627,64.477,35.688z"
     id="path3764" /><path
     d="M64.939,36.158c0.064,0.064,0.129,0.127,0.186,0.189l1.746-1.798c-0.055-0.058-0.117-0.119-0.176-0.179L64.939,36.158z"
     id="path3766" /><path
     d="M64.586,32.235l-1.814,1.728c0.066,0.066,0.145,0.146,0.238,0.238l1.799-1.741C64.721,32.373,64.645,32.297,64.586,32.235z"
     id="path3768" /><path
     d="M64.613,35.827c0.064,0.065,0.129,0.131,0.189,0.193l1.758-1.788c-0.061-0.06-0.123-0.123-0.184-0.184L64.613,35.827z"
     id="path3770" /><path
     d="M67.25,30.731c-0.064-0.064-0.127-0.127-0.184-0.186l-1.816,1.756c0.062,0.062,0.129,0.128,0.199,0.201L67.25,30.731z"
     id="path3772" /><path
     d="M66.541,33.608l1.779-1.793c-0.057-0.058-0.115-0.114-0.17-0.17l-1.783,1.786C66.424,33.49,66.484,33.55,66.541,33.608z"
     id="path3774" /><path
     d="M66.721,30.198c-0.605,0.6-1.227,1.146-1.826,1.742c0.055,0.056,0.129,0.132,0.219,0.224l1.814-1.756  C66.844,30.322,66.773,30.25,66.721,30.198z"
     id="path3776" /><path
     d="M67.879,34.963c0.615-0.607,1.189-1.177,1.795-1.777c-0.059-0.061-0.141-0.144-0.238-0.243l-1.752,1.821  C67.766,34.846,67.832,34.914,67.879,34.963z"
     id="path3778" /><path
     d="M66.23,33.293l1.783-1.786c-0.061-0.062-0.119-0.123-0.18-0.184l-1.797,1.775C66.102,33.163,66.166,33.228,66.23,33.293z"
     id="path3780" /><path
     d="M67.305,34.38c0.088,0.09,0.168,0.171,0.242,0.246l1.752-1.821c-0.072-0.072-0.152-0.153-0.236-0.236L67.305,34.38z"
     id="path3782" /><path
     d="M67.697,31.186c-0.107-0.109-0.213-0.215-0.312-0.316l-1.799,1.771c0.1,0.102,0.205,0.209,0.316,0.32L67.697,31.186z"
     id="path3784" /><path
     d="M66.857,33.929l1.771-1.801c-0.059-0.059-0.115-0.117-0.174-0.175l-1.777,1.792C66.738,33.809,66.799,33.869,66.857,33.929z  "
     id="path3786" /><path
     d="M66.994,34.065c0.061,0.062,0.119,0.12,0.174,0.179l1.76-1.814c-0.053-0.054-0.107-0.11-0.162-0.166L66.994,34.065z"
     id="path3788" /><path
     d="M53.863,42.459c-0.398,0.393-0.789,0.738-1.188,1.132c0.084,0.084,0.186,0.188,0.305,0.306l1.176-1.14  C54.043,42.642,53.941,42.54,53.863,42.459z"
     id="path3790" /><path
     d="M54.58,43.184c-0.1-0.102-0.195-0.199-0.287-0.289l-1.178,1.14c0.092,0.094,0.191,0.194,0.297,0.299L54.58,43.184z"
     id="path3792" /><path
     d="M56.311,47.251c0.412-0.41,0.793-0.785,1.166-1.155c-0.094-0.095-0.213-0.215-0.352-0.354l-1.137,1.182  C56.115,47.053,56.225,47.165,56.311,47.251z"
     id="path3794" /><path
     d="M55.467,44.073c-0.092-0.091-0.182-0.181-0.27-0.271l-1.168,1.153c0.092,0.091,0.184,0.185,0.277,0.278L55.467,44.073z"
     id="path3796" /><path
     d="M55.557,46.491c0.104,0.105,0.203,0.204,0.295,0.297l1.137-1.183c-0.09-0.091-0.188-0.19-0.289-0.292L55.557,46.491z"
     id="path3798" /><path
     d="M55.059,43.666c-0.115-0.119-0.23-0.234-0.34-0.345l-1.17,1.149c0.111,0.112,0.225,0.228,0.344,0.349L55.059,43.666z"
     id="path3800" /><path
     d="M54.441,45.372c0.074,0.072,0.146,0.146,0.221,0.218l1.152-1.165c-0.07-0.071-0.141-0.144-0.211-0.215L54.441,45.372z"
     id="path3802" /><path
     d="M55.172,46.103c0.086,0.086,0.166,0.169,0.248,0.25l1.143-1.178c-0.08-0.079-0.16-0.161-0.242-0.243L55.172,46.103z"
     id="path3804" /><path
     d="M54.797,45.728c0.08,0.081,0.158,0.159,0.238,0.238l1.148-1.17c-0.076-0.076-0.154-0.155-0.232-0.233L54.797,45.728z"
     id="path3806" /><path
     d="M64.008,39.06c0.555-0.549,1.068-1.059,1.596-1.579c-0.068-0.069-0.16-0.162-0.271-0.273l-1.555,1.618  C63.873,38.922,63.953,39.003,64.008,39.06z"
     id="path3808" /><path
     d="M63.381,38.426c0.094,0.093,0.18,0.182,0.26,0.262l1.555-1.618c-0.078-0.079-0.164-0.165-0.252-0.255L63.381,38.426z"
     id="path3810" /><path
     d="M62.387,37.416c0.062,0.064,0.125,0.128,0.188,0.191l1.58-1.593c-0.061-0.061-0.121-0.124-0.184-0.186L62.387,37.416z"
     id="path3812" /><path
     d="M63.031,34.878c-0.076-0.078-0.15-0.152-0.217-0.222l-1.615,1.56c0.074,0.074,0.15,0.15,0.232,0.234L63.031,34.878z"
     id="path3814" /><path
     d="M63.49,35.34c-0.113-0.113-0.219-0.221-0.322-0.325l-1.6,1.573c0.104,0.106,0.215,0.216,0.324,0.329L63.49,35.34z"
     id="path3816" /><path
     d="M62.711,37.746c0.066,0.068,0.135,0.136,0.201,0.203l1.57-1.601c-0.064-0.064-0.127-0.129-0.191-0.194L62.711,37.746z"
     id="path3818" /><path
     d="M63.047,38.086c0.068,0.069,0.135,0.136,0.199,0.202l1.562-1.611c-0.062-0.062-0.125-0.125-0.189-0.191L63.047,38.086z"
     id="path3820" /><path
     d="M62.441,34.28c-0.223,0.219-0.422,0.394-0.609,0.58c-0.32,0.315-0.656,0.612-1.014,0.968  c0.062,0.063,0.146,0.149,0.248,0.251l1.611-1.56C62.58,34.422,62.502,34.34,62.441,34.28z"
     id="path3822" /><path
     d="M63.836,35.692c-0.07-0.071-0.141-0.143-0.209-0.213l-1.598,1.577c0.074,0.073,0.146,0.147,0.221,0.223L63.836,35.692z"
     id="path3824" /><path
     d="M56.947,42.589c-0.086-0.087-0.174-0.175-0.258-0.26l-1.178,1.163c0.088,0.087,0.178,0.178,0.266,0.269L56.947,42.589z"
     id="path3826" /><path
     d="M57.801,45.798c0.398-0.433,0.752-0.817,1.121-1.22c-0.092-0.094-0.209-0.211-0.344-0.348l-1.148,1.194  C57.576,45.573,57.703,45.7,57.801,45.798z"
     id="path3828" /><path
     d="M56.629,44.618c0.082,0.082,0.162,0.163,0.24,0.242l1.154-1.189c-0.076-0.076-0.154-0.153-0.234-0.233L56.629,44.618z"
     id="path3830" /><path
     d="M55.381,41.011c-0.398,0.394-0.805,0.752-1.199,1.143c0.082,0.081,0.18,0.181,0.295,0.296l1.189-1.15  C55.555,41.188,55.459,41.091,55.381,41.011z"
     id="path3832" /><path
     d="M55.914,43.898c0.07,0.07,0.141,0.142,0.213,0.213l1.164-1.176c-0.07-0.069-0.139-0.14-0.207-0.209L55.914,43.898z"
     id="path3834" /><path
     d="M57.006,44.996c0.1,0.102,0.197,0.199,0.289,0.291l1.146-1.193c-0.09-0.09-0.184-0.185-0.283-0.285L57.006,44.996z"
     id="path3836" /><path
     d="M56.264,44.249c0.076,0.078,0.152,0.156,0.229,0.231l1.16-1.181c-0.072-0.074-0.148-0.15-0.225-0.225L56.264,44.249z"
     id="path3838" /><path
     d="M56.076,41.714c-0.098-0.098-0.189-0.19-0.273-0.277l-1.189,1.151c0.088,0.089,0.184,0.186,0.283,0.287L56.076,41.714z"
     id="path3840" /><path
     d="M56.553,42.192c-0.117-0.117-0.232-0.231-0.338-0.341l-1.182,1.16c0.109,0.112,0.225,0.226,0.342,0.343L56.553,42.192z"
     id="path3842" /><path
     d="M60.576,39.229c0.064,0.066,0.131,0.132,0.195,0.198l1.498-1.512c-0.062-0.063-0.127-0.128-0.188-0.192L60.576,39.229z"
     id="path3844" /><path
     d="M60.906,39.565c0.07,0.071,0.141,0.142,0.209,0.21l1.492-1.519c-0.068-0.066-0.135-0.135-0.201-0.204L60.906,39.565z"
     id="path3846" /><path
     d="M61.125,36.753c-0.084-0.084-0.162-0.163-0.234-0.237l-1.531,1.479c0.076,0.078,0.16,0.162,0.246,0.249L61.125,36.753z"
     id="path3848" /><path
     d="M62.277,40.952c0.512-0.506,0.984-0.976,1.514-1.498c-0.08-0.079-0.188-0.188-0.314-0.317l-1.479,1.536  C62.115,40.789,62.209,40.885,62.277,40.952z"
     id="path3850" /><path
     d="M61.25,39.913c0.072,0.074,0.143,0.145,0.211,0.214l1.482-1.529c-0.066-0.066-0.131-0.134-0.199-0.204L61.25,39.913z"
     id="path3852" /><path
     d="M61.586,37.221c-0.111-0.113-0.221-0.224-0.326-0.331l-1.518,1.492c0.105,0.107,0.217,0.219,0.328,0.333L61.586,37.221z"
     id="path3854" /><path
     d="M61.598,40.265c0.094,0.096,0.184,0.186,0.268,0.27L63.34,39c-0.082-0.083-0.168-0.17-0.26-0.264L61.598,40.265z"
     id="path3856" /><path
     d="M60.506,36.126l-1.543,1.469c0.072,0.072,0.16,0.162,0.262,0.263l1.529-1.479C60.658,36.281,60.572,36.194,60.506,36.126z"
     id="path3858" /><path
     d="M61.943,37.585c-0.074-0.077-0.148-0.152-0.221-0.226l-1.516,1.496c0.078,0.079,0.154,0.157,0.232,0.237L61.943,37.585z"
     id="path3860" /><path
     d="M58.08,40.683c-0.115-0.112-0.23-0.223-0.342-0.332l-1.209,1.189c0.107,0.11,0.221,0.225,0.336,0.342L58.08,40.683z"
     id="path3862" /><path
     d="M59.682,42.239l-1.225,1.262c0.098,0.099,0.191,0.195,0.279,0.285l1.219-1.267C59.861,42.423,59.77,42.331,59.682,42.239z"
     id="path3864" /><path
     d="M57.391,42.418c0.068,0.069,0.139,0.139,0.207,0.209l1.219-1.229c-0.066-0.064-0.135-0.131-0.207-0.201L57.391,42.418z"
     id="path3866" /><path
     d="M56.902,39.559c-0.383,0.379-0.811,0.759-1.199,1.144c0.078,0.078,0.174,0.175,0.283,0.286l1.205-1.165  C57.062,39.703,56.963,39.608,56.902,39.559z"
     id="path3868" /><path
     d="M57.6,40.217c-0.096-0.092-0.186-0.179-0.268-0.259l-1.209,1.17c0.084,0.086,0.176,0.179,0.27,0.275L57.6,40.217z"
     id="path3870" /><path
     d="M58.092,43.13c0.078,0.08,0.154,0.158,0.229,0.233l1.223-1.26c-0.074-0.075-0.152-0.148-0.229-0.22L58.092,43.13z"
     id="path3872" /><path
     d="M58.471,41.063c-0.082-0.082-0.166-0.163-0.25-0.246L57,42.02c0.084,0.086,0.17,0.173,0.256,0.26L58.471,41.063z"
     id="path3874" /><path
     d="M59.225,44.281c0.404-0.439,0.77-0.838,1.189-1.292c-0.113-0.115-0.219-0.224-0.324-0.33l-1.217,1.266  C59.012,44.064,59.131,44.186,59.225,44.281z"
     id="path3876" /><path
     d="M57.732,42.766c0.076,0.077,0.15,0.152,0.223,0.226l1.221-1.242c-0.062-0.061-0.137-0.133-0.221-0.216L57.732,42.766z"
     id="path3878" /><path
     d="M53.889,47.408c0.088,0.088,0.174,0.174,0.258,0.259l1.004-1.036c-0.078-0.082-0.162-0.167-0.248-0.254L53.889,47.408z"
     id="path3880" /><path
     d="M53.51,47.026c0.082,0.082,0.164,0.164,0.244,0.244l1.012-1.03c-0.078-0.08-0.156-0.159-0.236-0.241L53.51,47.026z"
     id="path3882" /><path
     d="M53.623,45.086c-0.119-0.12-0.234-0.236-0.346-0.348l-1.031,1.014c0.111,0.112,0.228,0.23,0.348,0.35L53.623,45.086z"
     id="path3884" /><path
     d="M54.039,45.502c-0.096-0.093-0.188-0.188-0.281-0.28l-1.027,1.017c0.093,0.095,0.188,0.191,0.283,0.287L54.039,45.502z"
     id="path3886" /><path
     d="M53.15,46.665c0.074,0.075,0.15,0.148,0.223,0.224l1.02-1.028c-0.072-0.072-0.145-0.146-0.219-0.22L53.15,46.665z"
     id="path3888" /><path
     d="M54.283,47.804c0.104,0.105,0.203,0.207,0.299,0.301l0.996-1.035c-0.088-0.092-0.186-0.192-0.291-0.301L54.283,47.804z"
     id="path3890" /><path
     d="M53.139,44.601c-0.104-0.106-0.205-0.208-0.297-0.301l-1.039,1.005c0.096,0.096,0.198,0.2,0.307,0.309L53.139,44.601z"
     id="path3892" /><path
     d="M55.131,48.659c0.268-0.291,0.527-0.523,0.721-0.803c0.08-0.118,0.084-0.407-0.004-0.5  c-0.039-0.042-0.084-0.092-0.137-0.146l-0.992,1.034C54.881,48.408,55.021,48.549,55.131,48.659z"
     id="path3894" /><path
     d="M52.398,43.855c-0.377,0.372-0.716,0.673-1.045,0.996c0.086,0.086,0.192,0.193,0.312,0.315l1.039-1.004  C52.583,44.041,52.479,43.937,52.398,43.855z"
     id="path3896" /><path
     d="M51.807,45.912c-0.111-0.111-0.214-0.216-0.309-0.312l-0.967,0.934c0.095,0.095,0.203,0.201,0.319,0.316L51.807,45.912z"
     id="path3898" /><path
     d="M53.891,49.864c0.334-0.33,0.617-0.612,0.924-0.915c-0.104-0.105-0.238-0.24-0.393-0.397l-0.902,0.939  C53.68,49.652,53.811,49.78,53.891,49.864z"
     id="path3900" /><path
     d="M51.916,47.904c0.074,0.074,0.151,0.149,0.227,0.225l0.93-0.938c-0.074-0.075-0.146-0.15-0.223-0.225L51.916,47.904z"
     id="path3902" /><path
     d="M52.668,48.65c0.093,0.091,0.182,0.178,0.268,0.264l0.914-0.939c-0.086-0.085-0.172-0.172-0.26-0.262L52.668,48.65z"
     id="path3904" /><path
     d="M52.714,46.828c-0.098-0.097-0.191-0.194-0.286-0.289l-0.947,0.935c0.098,0.096,0.195,0.195,0.297,0.293L52.714,46.828z"
     id="path3906" /><path
     d="M52.29,46.401c-0.119-0.121-0.236-0.239-0.348-0.351l-0.956,0.937c0.113,0.112,0.232,0.229,0.355,0.351L52.29,46.401z"
     id="path3908" /><path
     d="M52.28,48.266c0.085,0.083,0.169,0.166,0.253,0.248l0.92-0.938c-0.082-0.082-0.162-0.165-0.242-0.247L52.28,48.266z"
     id="path3910" /><path
     d="M51.045,45.145c-0.337,0.334-0.664,0.623-0.974,0.928c0.01,0.012,0.13,0.133,0.322,0.324l0.966-0.935  C51.236,45.336,51.131,45.229,51.045,45.145z"
     id="path3912" /><path
     d="M53.074,49.05c0.107,0.108,0.211,0.211,0.307,0.304l0.904-0.939c-0.094-0.096-0.195-0.197-0.299-0.303L53.074,49.05z"
     id="path3914" /><path
     d="M51.49,48.057c-0.1-0.102-0.199-0.201-0.297-0.3l-0.909,0.897c0.097,0.102,0.2,0.204,0.3,0.307L51.49,48.057z"
     id="path3916" /><path
     d="M50.572,47.124c-0.114-0.116-0.22-0.224-0.318-0.323l-0.917,0.887c0.1,0.102,0.208,0.213,0.325,0.333L50.572,47.124z"
     id="path3918" /><path
     d="M52.557,50.943c0.075,0.07,0.33,0.075,0.404,0.006c0.246-0.223,0.449-0.493,0.656-0.729c-0.1-0.101-0.238-0.241-0.404-0.41  l-0.881,0.914C52.424,50.813,52.498,50.888,52.557,50.943z"
     id="path3920" /><path
     d="M51.059,47.618c-0.121-0.123-0.237-0.242-0.35-0.356l-0.911,0.896c0.114,0.115,0.23,0.235,0.351,0.359L51.059,47.618z"
     id="path3922" /><path
     d="M51.883,50.275c0.113,0.114,0.217,0.22,0.312,0.312l0.881-0.916c-0.096-0.097-0.197-0.2-0.304-0.31L51.883,50.275z"
     id="path3924" /><path
     d="M50.721,49.1c0.078,0.077,0.153,0.155,0.229,0.232l0.901-0.908c-0.076-0.076-0.151-0.154-0.226-0.231L50.721,49.1z"
     id="path3926" /><path
     d="M51.475,49.866c0.094,0.094,0.186,0.185,0.271,0.272l0.889-0.916c-0.086-0.087-0.173-0.177-0.264-0.269L51.475,49.866z"
     id="path3928" /><path
     d="M51.086,49.47c0.086,0.087,0.17,0.172,0.254,0.258l0.895-0.913c-0.082-0.083-0.164-0.168-0.247-0.253L51.086,49.47z"
     id="path3930" /><path
     d="M49.797,46.335c-0.315,0.312-0.614,0.574-0.924,0.881c0.08,0.08,0.192,0.195,0.328,0.334l0.918-0.888  C49.984,46.527,49.875,46.416,49.797,46.335z"
     id="path3932" /><path
     d="M48.596,47.482c-0.32,0.314-0.599,0.561-0.845,0.805c0.085,0.086,0.2,0.2,0.336,0.339l0.837-0.81  C48.791,47.679,48.677,47.564,48.596,47.482z"
     id="path3934" /><path
     d="M49.631,50.191c0.078,0.077,0.155,0.157,0.233,0.236l0.821-0.828c-0.076-0.078-0.155-0.156-0.231-0.234L49.631,50.191z"
     id="path3936" /><path
     d="M49.389,48.288c-0.117-0.12-0.225-0.231-0.328-0.333l-0.838,0.81c0.103,0.104,0.215,0.218,0.335,0.34L49.389,48.288z"
     id="path3938" /><path
     d="M51.721,52.31c0.283-0.324,0.518-0.593,0.769-0.881c-0.099-0.102-0.247-0.248-0.423-0.428l-0.809,0.84  C51.452,52.037,51.612,52.199,51.721,52.31z"
     id="path3940" /><path
     d="M50.394,50.965c0.096,0.096,0.189,0.19,0.279,0.28l0.813-0.835c-0.091-0.091-0.181-0.182-0.274-0.275L50.394,50.965z"
     id="path3942" /><path
     d="M49.878,48.783c-0.122-0.123-0.24-0.244-0.352-0.358l-0.832,0.816c0.114,0.116,0.232,0.238,0.355,0.36L49.878,48.783z"
     id="path3944" /><path
     d="M50.318,49.228c-0.103-0.104-0.203-0.207-0.304-0.308l-0.828,0.818c0.101,0.103,0.205,0.208,0.308,0.314L50.318,49.228z"
     id="path3946" /><path
     d="M50,50.565c0.087,0.087,0.173,0.175,0.259,0.262l0.816-0.832c-0.085-0.085-0.17-0.171-0.255-0.257L50,50.565z"
     id="path3948" /><path
     d="M50.809,51.384c0.11,0.112,0.214,0.219,0.314,0.32l0.808-0.841c-0.097-0.099-0.201-0.205-0.31-0.315L50.809,51.384z"
     id="path3950" /><path
     d="M50.555,51.646l-0.725,0.748c0.113,0.111,0.22,0.221,0.319,0.322l0.723-0.751c-0.012-0.013-0.021-0.023-0.033-0.035  C50.776,51.869,50.678,51.77,50.555,51.646z"
     id="path3952" /><path
     d="M49.411,51.968c0.097,0.098,0.191,0.194,0.284,0.286l0.724-0.746c-0.085-0.087-0.18-0.182-0.279-0.283L49.411,51.968z"
     id="path3954" /><path
     d="M48.791,49.856c-0.123-0.123-0.242-0.244-0.356-0.36l-0.743,0.73c0.114,0.116,0.234,0.237,0.357,0.362L48.791,49.856z"
     id="path3956" /><path
     d="M47.489,48.538c-0.326,0.322-0.549,0.515-0.753,0.718c0.085,0.087,0.203,0.206,0.343,0.348l0.748-0.725  C47.675,48.726,47.557,48.606,47.489,48.538z"
     id="path3958" /><path
     d="M48.638,51.185c0.079,0.079,0.158,0.159,0.237,0.24l0.733-0.739c-0.077-0.077-0.156-0.157-0.234-0.237L48.638,51.185z"
     id="path3960" /><path
     d="M49.01,51.562c0.089,0.091,0.177,0.178,0.264,0.267l0.729-0.742c-0.083-0.084-0.171-0.173-0.26-0.263L49.01,51.562z"
     id="path3962" /><path
     d="M50.755,53.329c0.692-0.654,0.754-0.714,0.251-1.229l-0.722,0.753C50.483,53.054,50.646,53.218,50.755,53.329z"
     id="path3964" /><path
     d="M48.299,49.358c-0.122-0.122-0.234-0.237-0.337-0.341l-0.749,0.724c0.105,0.107,0.22,0.225,0.342,0.348L48.299,49.358z"
     id="path3966" /><path
     d="M49.236,50.311c-0.103-0.105-0.207-0.211-0.311-0.315l-0.739,0.731c0.103,0.105,0.208,0.212,0.315,0.321L49.236,50.311z"
     id="path3968" /><path
     d="M48.822,53.432c0.114,0.115,0.223,0.226,0.323,0.327l0.691-0.717c-0.101-0.103-0.208-0.211-0.32-0.324L48.822,53.432z"
     id="path3970" /><path
     d="M47.615,52.209c0.08,0.081,0.161,0.162,0.241,0.244l0.7-0.708c-0.079-0.08-0.157-0.16-0.238-0.24L47.615,52.209z"
     id="path3972" /><path
     d="M47.234,50.406c-0.125-0.125-0.241-0.242-0.346-0.35l-0.715,0.691c0.107,0.109,0.226,0.228,0.351,0.355L47.234,50.406z"
     id="path3974" /><path
     d="M47.727,50.907c-0.124-0.125-0.243-0.248-0.357-0.363l-0.71,0.697c0.117,0.117,0.237,0.237,0.361,0.364L47.727,50.907z"
     id="path3976" /><path
     d="M48.182,51.367c-0.108-0.109-0.213-0.217-0.319-0.322l-0.707,0.699c0.106,0.106,0.214,0.217,0.322,0.326L48.182,51.367z"
     id="path3978" /><path
     d="M49.736,54.356c0.289-0.286,0.502-0.496,0.708-0.7c-0.114-0.113-0.277-0.277-0.472-0.477l-0.69,0.717  C49.471,54.09,49.627,54.247,49.736,54.356z"
     id="path3980" /><path
     d="M46.408,49.569l-0.72,0.686c0.089,0.09,0.208,0.212,0.349,0.354l0.716-0.691C46.61,49.774,46.493,49.656,46.408,49.569z"
     id="path3982" /><path
     d="M47.992,52.59c0.09,0.093,0.179,0.184,0.267,0.271l0.699-0.709c-0.087-0.089-0.176-0.179-0.266-0.269L47.992,52.59z"
     id="path3984" /><path
     d="M48.396,53c0.099,0.101,0.196,0.198,0.291,0.294l0.692-0.714c-0.093-0.095-0.188-0.191-0.286-0.29L48.396,53z"
     id="path3986" /><path
     d="M47.077,53.514c0.092,0.094,0.182,0.185,0.272,0.275l0.669-0.681c-0.088-0.09-0.178-0.181-0.268-0.273L47.077,53.514z"
     id="path3988" /><path
     d="M45.431,50.5c-0.299,0.297-0.497,0.466-0.684,0.652c0.089,0.091,0.21,0.214,0.356,0.36l0.681-0.659  C45.638,50.706,45.515,50.584,45.431,50.5z"
     id="path3990" /><path
     d="M47.373,52.452l-0.676,0.676c0.082,0.084,0.162,0.166,0.244,0.248l0.673-0.679C47.533,52.616,47.453,52.533,47.373,52.452z"
     id="path3992" /><path
     d="M46.775,51.848c-0.124-0.124-0.246-0.247-0.362-0.364l-0.679,0.669c0.115,0.117,0.237,0.24,0.362,0.366L46.775,51.848z"
     id="path3994" /><path
     d="M47.236,52.313c-0.108-0.11-0.219-0.22-0.326-0.327l-0.679,0.671c0.107,0.11,0.219,0.221,0.33,0.334L47.236,52.313z"
     id="path3996" /><path
     d="M47.917,54.365c0.112,0.114,0.223,0.227,0.326,0.33l0.65-0.675c-0.097-0.103-0.204-0.216-0.318-0.336L47.917,54.365z"
     id="path3998" /><path
     d="M47.484,53.928c0.101,0.102,0.2,0.201,0.296,0.3l0.66-0.682c-0.092-0.097-0.188-0.197-0.288-0.298L47.484,53.928z"
     id="path4000" /><path
     d="M46.276,51.348c-0.127-0.128-0.246-0.248-0.354-0.356l-0.683,0.66c0.111,0.11,0.23,0.232,0.358,0.363L46.276,51.348z"
     id="path4002" /><path
     d="M49.011,55.474c0.146-0.437,0.41-0.863,0.309-0.984c-0.068-0.083-0.17-0.194-0.292-0.327l-0.648,0.672  C48.638,55.095,48.856,55.317,49.011,55.474z"
     id="path4004" /><path
     d="M46.56,54.87c0.103,0.104,0.202,0.206,0.301,0.305l0.621-0.642c-0.095-0.098-0.195-0.198-0.297-0.302L46.56,54.87z"
     id="path4006" /><path
     d="M45.791,52.818c-0.125-0.126-0.247-0.249-0.363-0.366l-0.636,0.625c0.117,0.119,0.239,0.243,0.364,0.369L45.791,52.818z"
     id="path4008" /><path
     d="M45.292,52.314c-0.132-0.134-0.252-0.258-0.361-0.366l-0.642,0.62c0.112,0.114,0.235,0.239,0.366,0.372L45.292,52.314z"
     id="path4010" /><path
     d="M46.26,53.294c-0.113-0.114-0.223-0.227-0.332-0.337l-0.635,0.627c0.11,0.112,0.224,0.227,0.336,0.341L46.26,53.294z"
     id="path4012" /><path
     d="M46.997,55.312c0.116,0.117,0.227,0.23,0.331,0.337l0.62-0.646c-0.104-0.104-0.214-0.216-0.329-0.333L46.997,55.312z"
     id="path4014" /><path
     d="M46.146,54.452c0.094,0.095,0.186,0.188,0.278,0.28l0.625-0.639c-0.09-0.09-0.182-0.184-0.272-0.276L46.146,54.452z"
     id="path4016" /><path
     d="M47.983,56.312c0.238-0.266,0.423-0.471,0.599-0.666c-0.109-0.11-0.283-0.286-0.499-0.504l-0.619,0.645  C47.68,56.004,47.859,56.186,47.983,56.312z"
     id="path4018" /><path
     d="M44.438,51.447l-0.647,0.616c0.091,0.094,0.215,0.218,0.363,0.367l0.642-0.62C44.573,51.584,44.438,51.447,44.438,51.447z"
     id="path4020" /><path
     d="M45.765,54.063c0.082,0.083,0.165,0.166,0.247,0.25l0.627-0.634c-0.081-0.083-0.163-0.166-0.244-0.249L45.765,54.063z"
     id="path4022" /><path
     d="M44.943,54.886c0.084,0.085,0.168,0.168,0.25,0.252l0.523-0.527c-0.083-0.084-0.165-0.168-0.247-0.252L44.943,54.886z"
     id="path4024" /><path
     d="M47.191,57.162c0.198-0.239,0.344-0.414,0.477-0.575c-0.118-0.119-0.288-0.292-0.495-0.5l-0.515,0.536  C46.881,56.85,47.065,57.036,47.191,57.162z"
     id="path4026" /><path
     d="M45.745,55.698c0.105,0.106,0.207,0.21,0.307,0.311l0.517-0.534c-0.098-0.1-0.199-0.201-0.303-0.307L45.745,55.698z"
     id="path4028" /><path
     d="M45.332,54.222c-0.114-0.117-0.226-0.231-0.336-0.345l-0.531,0.524c0.114,0.113,0.228,0.229,0.342,0.346L45.332,54.222z"
     id="path4030" /><path
     d="M45.33,55.276c0.094,0.096,0.188,0.191,0.281,0.284l0.521-0.531c-0.093-0.091-0.186-0.187-0.279-0.281L45.33,55.276z"
     id="path4032" /><path
     d="M43.487,52.353c-0.2,0.198-0.366,0.344-0.538,0.513c0.094,0.096,0.221,0.221,0.369,0.373l0.535-0.517  C43.703,52.568,43.578,52.442,43.487,52.353z"
     id="path4034" /><path
     d="M44.858,53.74c-0.126-0.127-0.248-0.251-0.365-0.369l-0.529,0.521c0.117,0.118,0.239,0.243,0.366,0.37L44.858,53.74z"
     id="path4036" /><path
     d="M46.189,56.146c0.116,0.119,0.229,0.233,0.334,0.34l0.515-0.537c-0.104-0.105-0.214-0.219-0.333-0.336L46.189,56.146z"
     id="path4038" /><path
     d="M44.358,53.232c-0.132-0.133-0.256-0.259-0.368-0.373l-0.536,0.517c0.115,0.116,0.239,0.244,0.373,0.379L44.358,53.232z"
     id="path4040" /><path
     d="M44.567,56.046c0.096,0.097,0.19,0.192,0.284,0.288l0.485-0.495c-0.093-0.095-0.187-0.189-0.281-0.285L44.567,56.046z"
     id="path4042" /><path
     d="M44.533,55.022c-0.117-0.117-0.232-0.233-0.345-0.349l-0.493,0.487c0.113,0.117,0.229,0.233,0.347,0.353L44.533,55.022z"
     id="path4044" /><path
     d="M43.55,54.027c-0.133-0.136-0.261-0.264-0.375-0.381l-0.5,0.481c0.117,0.119,0.245,0.247,0.38,0.385L43.55,54.027z"
     id="path4046" /><path
     d="M45.434,56.924c0.117,0.12,0.231,0.234,0.337,0.344l0.481-0.502c-0.106-0.105-0.218-0.22-0.335-0.339L45.434,56.924z"
     id="path4048" /><path
     d="M42.668,53.134c-0.186,0.185-0.345,0.323-0.503,0.479c0.094,0.094,0.222,0.224,0.376,0.378l0.498-0.482  C42.886,53.355,42.76,53.228,42.668,53.134z"
     id="path4050" /><path
     d="M44.986,56.471c0.107,0.108,0.21,0.214,0.311,0.316l0.483-0.498c-0.099-0.102-0.204-0.205-0.307-0.312L44.986,56.471z"
     id="path4052" /><path
     d="M46.455,57.958c0.188-0.22,0.326-0.381,0.453-0.529c-0.124-0.123-0.303-0.305-0.519-0.524l-0.482,0.501  C46.133,57.634,46.323,57.825,46.455,57.958z"
     id="path4054" /><path
     d="M44.052,54.535c-0.125-0.127-0.248-0.251-0.366-0.37l-0.495,0.485c0.119,0.12,0.241,0.246,0.368,0.373L44.052,54.535z"
     id="path4056" /><path
     d="M44.178,55.651c0.084,0.086,0.169,0.171,0.252,0.257l0.489-0.494c-0.083-0.084-0.167-0.169-0.25-0.254L44.178,55.651z"
     id="path4058" /><path
     d="M44.671,57.709c0.122,0.123,0.235,0.239,0.343,0.347l0.46-0.48c-0.105-0.107-0.218-0.224-0.338-0.344L44.671,57.709z"
     id="path4060" /><path
     d="M43.878,55.952l-0.474,0.475c0.085,0.086,0.17,0.173,0.254,0.259l0.472-0.477C44.046,56.124,43.962,56.038,43.878,55.952z"
     id="path4062" /><path
     d="M44.219,57.252c0.108,0.109,0.214,0.217,0.316,0.32l0.466-0.479c-0.103-0.103-0.207-0.209-0.313-0.318L44.219,57.252z"
     id="path4064" /><path
     d="M42.749,54.815c-0.137-0.14-0.267-0.269-0.382-0.386l-0.473,0.456c0.116,0.119,0.245,0.252,0.382,0.393L42.749,54.815z"
     id="path4066" /><path
     d="M45.656,58.707c0.23-0.227,0.35-0.346,0.474-0.468c-0.114-0.117-0.296-0.3-0.519-0.527l-0.461,0.481  C45.367,58.415,45.544,58.593,45.656,58.707z"
     id="path4068" /><path
     d="M44.267,56.348l-0.472,0.476c0.096,0.099,0.193,0.196,0.288,0.292l0.469-0.479C44.458,56.542,44.362,56.444,44.267,56.348z"
     id="path4070" /><path
     d="M43.255,55.323c-0.128-0.129-0.251-0.253-0.37-0.372l-0.474,0.465c0.119,0.121,0.241,0.247,0.369,0.376L43.255,55.323z"
     id="path4072" /><path
     d="M41.846,53.919c-0.081-0.077-0.538,0.354-0.46,0.438c0.085,0.091,0.214,0.226,0.374,0.39l0.468-0.454  C42.067,54.134,41.936,54.005,41.846,53.919z"
     id="path4074" /><path
     d="M43.742,55.816c-0.118-0.12-0.236-0.239-0.351-0.354l-0.475,0.47c0.116,0.116,0.232,0.236,0.352,0.357L43.742,55.816z"
     id="path4076" /><path
     d="M43.577,58.838c0.124,0.126,0.24,0.244,0.345,0.352l0.811-0.844c-0.104-0.106-0.22-0.222-0.343-0.347L43.577,58.838z"
     id="path4078" /><path
     d="M41.078,54.65c-0.291,0.287-0.572,0.535-0.845,0.806c0.042,0.043,0.182,0.185,0.387,0.392l0.841-0.812  C41.26,54.832,41.123,54.692,41.078,54.65z"
     id="path4080" /><path
     d="M42.491,56.078c-0.127-0.131-0.251-0.255-0.37-0.376l-0.833,0.821c0.119,0.12,0.243,0.246,0.372,0.376L42.491,56.078z"
     id="path4082" /><path
     d="M41.985,55.565c-0.142-0.144-0.272-0.275-0.389-0.393l-0.84,0.812c0.119,0.119,0.251,0.254,0.396,0.399L41.985,55.565z"
     id="path4084" /><path
     d="M43.512,57.109l-0.824,0.83c0.098,0.101,0.198,0.199,0.293,0.298l0.819-0.835C43.705,57.307,43.609,57.209,43.512,57.109z"
     id="path4086" /><path
     d="M42.627,56.216l-0.832,0.82c0.118,0.12,0.24,0.242,0.362,0.366l0.825-0.827C42.864,56.454,42.744,56.333,42.627,56.216z"
     id="path4088" /><path
     d="M43.119,56.713l-0.827,0.826c0.087,0.088,0.173,0.176,0.259,0.265l0.826-0.833C43.29,56.887,43.204,56.8,43.119,56.713z"
     id="path4090" /><path
     d="M44.518,59.791c0.312-0.311,0.574-0.569,0.83-0.822c-0.052-0.053-0.228-0.229-0.478-0.485l-0.812,0.844  C44.3,59.571,44.467,59.741,44.518,59.791z"
     id="path4092" /><path
     d="M43.118,58.374c0.111,0.112,0.219,0.223,0.322,0.328l0.815-0.84c-0.104-0.104-0.208-0.211-0.318-0.322L43.118,58.374z"
     id="path4094" /><path
     d="M70.387,20.363c-0.037,0.964,0.09,1.932,0.031,2.888c-0.059,0.984-0.297,1.959-0.459,2.954  C70.994,24.329,70.551,22.329,70.387,20.363z"
     id="path4096" /><path
     d="M82.645,20.073c-0.07-0.113-0.125-0.2-0.182-0.295c0.266-0.083,0.49-0.153,0.746-0.234  c-0.445-0.312-0.713-0.188-1.119,0.496C82.277,20.05,82.449,20.061,82.645,20.073z"
     id="path4098" /><path
     d="M80.848,22.379c-0.33-0.133-0.75,0.235-0.891,0.705c0.279,0.022,0.514,0.041,0.828,0.065  C80.459,22.815,81.449,22.623,80.848,22.379z"
     id="path4100" /><path
     d="M85.074,16.176c-0.586-0.278-0.738,0.24-1.1,0.576c0.285,0.048,0.475,0.078,0.586,0.097  C84.771,16.571,84.91,16.391,85.074,16.176z"
     id="path4102" /><path
     d="M59.184,41.302c0.074,0.073,0.145,0.146,0.217,0.218L60.893,40c-0.068-0.069-0.139-0.14-0.209-0.21L59.184,41.302z"
     id="path4104" /><path
     d="M59.895,42.02c0.098,0.099,0.191,0.192,0.273,0.277l1.479-1.536c-0.086-0.084-0.176-0.175-0.27-0.271L59.895,42.02z"
     id="path4106" /><path
     d="M58.848,40.96c0.066,0.068,0.135,0.136,0.201,0.204l1.5-1.513c-0.066-0.064-0.133-0.131-0.197-0.197L58.848,40.96z"
     id="path4108" /><path
     d="M58.732,37.816l-1.541,1.469c0.074,0.076,0.166,0.167,0.271,0.275l1.531-1.48C58.891,37.977,58.803,37.887,58.732,37.816z"
     id="path4110" /><path
     d="M59.537,41.658c0.076,0.077,0.15,0.152,0.221,0.224l1.482-1.529c-0.066-0.069-0.139-0.141-0.211-0.214L59.537,41.658z"
     id="path4112" /><path
     d="M60.215,39.316c-0.078-0.08-0.156-0.159-0.234-0.238l-1.514,1.496c0.08,0.082,0.162,0.165,0.244,0.249L60.215,39.316z"
     id="path4114" /><path
     d="M59.377,38.469c-0.088-0.088-0.17-0.172-0.248-0.25L57.6,39.698c0.08,0.083,0.168,0.17,0.26,0.264L59.377,38.469z"
     id="path4116" /><path
     d="M59.844,38.941c-0.113-0.115-0.223-0.228-0.33-0.334l-1.518,1.492c0.107,0.108,0.219,0.222,0.334,0.337L59.844,38.941z"
     id="path4118" /><path
     d="M60.584,42.716c0.512-0.508,0.982-0.976,1.514-1.498c-0.08-0.08-0.188-0.188-0.316-0.319l-1.477,1.535  C60.42,42.552,60.516,42.648,60.584,42.716z"
     id="path4120" /><path
     d="M71.076,19.146l0.172-0.086l0.246,0.275l-0.438,0.487c0,0,0.287,0.204,3.936-2.804c3.646-3.007,6.34-5.79,6.34-5.79  l-0.854,0.644l-0.516-0.521l-0.186-0.534l0.494-0.573c0,0-0.729-1.403-1.955-0.731c-1.23,0.671-0.037,1.787-0.037,1.787l0.385,0.334  l0.609-0.372l0.4,0.434l0.299,0.506l-2.246,2.194l-0.559-0.623l-0.055-0.519l0.406-0.402c0,0-1.102-1.547-2.1-0.875  c-0.996,0.672,0.006,2.002,0.006,2.002l1.08-0.124l0.258,0.232l0.086,0l0.475,0.65l-2.332,1.992c0,0-0.66-0.494-0.602-0.522  c0.057-0.028,0.146-0.288,0.146-0.288l-0.188-0.188l0.508-0.588c0,0-1.203-1.62-2.215-0.818c-1.014,0.801-0.428,1.741,0.074,2.219  l0.996-0.327l0.387,0.247l0.357,0.651l-2.43,1.832l-0.416-0.305l0.104-0.128l-0.389-0.421l0.592-0.415c0,0-1.043-1.72-2.07-0.759  c-1.029,0.96-0.111,1.944-0.111,1.944l0.982-0.11L71.076,19.146z"
     id="path4122" /><path
     d="M43.194,58.955c-0.112-0.104-0.223-0.213-0.334-0.318L30.205,71.521l-0.004,0.002l-10.593,9.07  c0.008,0.038,0.018,0.08,0.025,0.125l10.978-8.793L43.194,58.955z"
     id="path4124" /><path
     d="M31.273,72.618L19.72,81.592c0.08,0.624,0.257,1.212,0.876,1.635c0.166,0.113,0.27,0.553,0.184,0.74  c-0.104,0.227-0.424,0.406-0.687,0.487c-0.205,0.064-0.464-0.051-0.605-0.072c-0.12,0.233-0.173,0.438-0.302,0.569  c-0.345,0.348-0.731,0.655-1.083,0.999c-0.707,0.687-1.405,1.385-2.125,2.096c-1.223-0.774-3.424-2.335-4.887-4.342  c0.483-0.39,1.172-0.969,1.617-1.396c0.732-0.702,1.486-1.382,2.312-2.149c0.003,0.016-0.096-0.178-0.04-0.298  c0.123-0.259,0.279-0.565,0.51-0.691c0.189-0.101,0.616-0.07,0.75,0.075c0.283,0.308,0.602,0.51,0.943,0.645l10.194-11.237  l0.001-0.002l12.914-12.487c-0.534-0.566-0.484-0.62,0.178-1.256c2.209-2.127,4.428-4.245,6.634-6.374  c0.265-0.256,0.481-0.564,0.721-0.848c-0.039-0.049-0.079-0.099-0.119-0.147c-1.486,0.615-2.995,1.184-4.454,1.856  c-2.421,1.116-4.872,1.921-7.608,1.661c-1.311-0.126-2.651,0.029-3.975,0.096c-1.857,0.095-3.727,0.117-5.565,0.358  c-6.709,0.881-12.507,3.459-16.618,9.12c-1.488,2.051-2.675,4.237-3.222,6.718c-0.281,1.275-0.436,2.582-0.551,3.885  c-0.168,1.902,0.088,3.819,0.757,5.562c0.757,1.965,1.896,3.787,2.905,5.65c0.319,0.59,0.761,1.112,1.16,1.683  c-0.005,0.01,2.717,2.946,5.067,4.295c0,0,0,0-0.001,0.001c1.763,1.14,3.59,2.153,5.593,2.766c3.746,1.146,7.517,1.061,11.288,0.06  c3.382-0.899,6.255-2.683,8.751-5.082c1.051-1.011,2.046-2.095,2.947-3.238c0.635-0.811,1.165-1.739,1.573-2.686  c0.568-1.325,2.09-7,2.133-7.48c0.291-3.316,0.544-6.636,0.868-9.949c0.124-1.262,0.265-2.551,0.637-3.753  c0.423-1.368,1.125-2.648,1.679-3.978c0.322-0.773,0.592-1.568,0.885-2.353c-0.051-0.022-0.102-0.045-0.152-0.066  c-0.473,0.469-0.96,0.928-1.42,1.41c-1.614,1.686-3.211,3.39-4.831,5.071c-1.042,1.082-0.913,1.224-1.724,0.426L31.28,72.613  L31.273,72.618z M26.006,68.623c-0.319-0.121-0.73-0.158-0.932-0.385c-0.23-0.257-0.276-0.68-0.401-1.031  c0.063-0.011,0.127-0.022,0.191-0.035c0.411,0.416,0.821,0.831,1.233,1.247C26.066,68.487,26.036,68.554,26.006,68.623z   M27.08,67.569c-0.452-0.455-0.848-0.855-1.256-1.267C26.625,66.2,27.034,66.571,27.08,67.569z M10.396,61.902  c0.92-2.157,2.676-0.181,2.676-0.181c2.411,0.251,5.039-3.562,5.039-3.562s2.145,0.083,3.571-0.982  c1.963-1.469,3.529-1.546,4.181-1.544c0.743,0.004,1.709,1.422,1.272,1.941c-0.438,0.521-1.263,0.342-1.629,0.057  c-0.37-0.283-1.022-0.026-1.022-0.026s-0.349,0.086-1.635,0.796c-1.285,0.711-3.232,3.026-3.232,3.026s-1.216-0.18-3.615,1.155  c-2.397,1.335-4.091,1.153-4.091,1.153S9.76,63.399,10.396,61.902z M31.552,73.532c0.439,0.443,0.836,0.846,1.259,1.272  C31.891,74.844,31.479,74.453,31.552,73.532z M38.605,76.941c0,0,2.335-1.924,3.059-3.202c0.725-1.278,0.813-1.626,0.813-1.626  s0.264-0.651-0.017-1.022c-0.281-0.371-0.45-1.197,0.074-1.629c0.524-0.433,1.932,0.548,1.928,1.292  c-0.004,0.651-0.099,2.217-1.585,4.165c-1.08,1.413-1.02,3.56-1.02,3.56s-3.837,2.589-3.61,5.003c0,0,1.958,1.775-0.209,2.674  c-1.504,0.622-1.819-1.532-1.819-1.532s-0.165-1.695,1.196-4.08C38.773,78.159,38.605,76.941,38.605,76.941z M33.793,73.905  c-0.415-0.42-0.822-0.83-1.292-1.304C33.467,72.473,33.943,72.986,33.793,73.905z"
     id="path4126" /><path
     d="M42.279,58.078c-0.089-0.085-0.178-0.17-0.269-0.257L29.276,70.575l-0.001,0.002l-10.25,9.589  c0.104,0.01,0.193,0.025,0.264,0.051l10.293-9.333L42.279,58.078z"
     id="path4128" /><path
     d="M41.361,57.195c-0.128-0.121-0.255-0.244-0.383-0.369L28.152,69.435L17.881,80.073c0.099,0.017,0.199,0.029,0.3,0.04  l10.371-10.271L41.361,57.195z"
     id="path4130" /><path
     d="M43.333,59.09l-12.59,12.977l-0.006,0.004L19.66,80.945c0.001,0.01,0.001,0.021,0.003,0.032  c0.009,0.13,0.018,0.26,0.03,0.39l11.456-8.898l12.539-13.037c-0.062-0.061-0.129-0.125-0.202-0.194  C43.436,59.188,43.384,59.139,43.333,59.09z"
     id="path4132" /><path
     d="M28.015,69.299l12.813-12.596l-0.021-0.016c-0.141-0.143-0.255-0.253-0.366-0.37c-0.004-0.004-0.008-0.009-0.014-0.015  L27.517,68.787L17.382,79.959c0.089,0.028,0.18,0.051,0.272,0.07L28.015,69.299z"
     id="path4134" /><path
     d="M29.718,71.021l-0.002,0.002l-0.002,0.001l-10.248,9.293c0.026,0.024,0.047,0.054,0.066,0.085l10.54-9.024l12.65-12.875  c-0.101-0.097-0.203-0.194-0.303-0.291L29.718,71.021z"
     id="path4136" /><path
     d="M28.69,69.979L18.434,80.135c0.109,0.008,0.215,0.013,0.325,0.017l10.382-9.715l12.73-12.749  c-0.123-0.118-0.247-0.237-0.373-0.357L28.69,69.979z"
     id="path4138" /><path
     d="M57.6,39.698c-0.049-0.047-0.092-0.093-0.137-0.138l-0.271,0.264c0.043,0.042,0.09,0.086,0.141,0.133L57.6,39.698z"
     id="path4140" /><path
     d="M56.123,41.127c-0.049-0.048-0.094-0.093-0.137-0.138l-0.32,0.311c0.043,0.043,0.09,0.089,0.137,0.137L56.123,41.127z"
     id="path4142" /><path
     d="M52.246,45.751c-0.048-0.047-0.093-0.094-0.137-0.138l-0.303,0.298c0.045,0.045,0.09,0.09,0.136,0.138L52.246,45.751z"
     id="path4144" /><path
     d="M53.549,44.47c-0.047-0.046-0.094-0.091-0.137-0.136l-0.273,0.267c0.047,0.044,0.092,0.091,0.139,0.137L53.549,44.47z"
     id="path4146" /><path
     d="M63.143,34.339c-0.047-0.05-0.092-0.095-0.133-0.139l-0.332,0.318c0.043,0.043,0.088,0.09,0.137,0.138L63.143,34.339z"
     id="path4148" /><path
     d="M61.199,36.216c-0.047-0.048-0.092-0.094-0.133-0.137l-0.312,0.301c0.045,0.042,0.09,0.089,0.137,0.137L61.199,36.216z"
     id="path4150" /><path
     d="M65.25,32.302c-0.049-0.049-0.094-0.095-0.137-0.138l-0.305,0.295c0.041,0.045,0.088,0.09,0.137,0.139L65.25,32.302z"
     id="path4152" /><path
     d="M55.033,43.011c-0.047-0.047-0.092-0.093-0.137-0.137l-0.316,0.31c0.047,0.044,0.092,0.091,0.139,0.137L55.033,43.011z"
     id="path4154" /><path
     d="M54.613,42.587c-0.049-0.048-0.094-0.093-0.137-0.137l-0.32,0.308c0.045,0.043,0.09,0.089,0.137,0.137L54.613,42.587z"
     id="path4156" /><path
     d="M53.115,44.035c-0.049-0.047-0.094-0.093-0.135-0.137l-0.275,0.265c0.043,0.044,0.088,0.089,0.137,0.137L53.115,44.035z"
     id="path4158" /><path
     d="M59.359,37.996c-0.047-0.048-0.092-0.093-0.135-0.137l-0.23,0.222c0.043,0.044,0.09,0.09,0.135,0.139L59.359,37.996z"
     id="path4160" /><path
     d="M41.894,54.886c-0.047-0.048-0.092-0.094-0.134-0.139l-0.298,0.289c0.042,0.042,0.088,0.087,0.136,0.137L41.894,54.886z"
     id="path4162" /><path
     d="M42.675,54.128c-0.047-0.047-0.091-0.092-0.134-0.137l-0.314,0.302c0.044,0.044,0.091,0.089,0.139,0.137L42.675,54.128z"
     id="path4164" /><path
     d="M43.964,53.893c-0.045-0.048-0.091-0.094-0.137-0.138l-0.277,0.272c0.045,0.045,0.09,0.09,0.136,0.138L43.964,53.893z"
     id="path4166" /><path
     d="M43.455,53.376c-0.046-0.047-0.092-0.093-0.136-0.138l-0.279,0.271c0.042,0.045,0.089,0.09,0.136,0.138L43.455,53.376z"
     id="path4168" /><path
     d="M44.792,53.077c-0.047-0.046-0.092-0.093-0.136-0.137l-0.297,0.292c0.044,0.045,0.09,0.091,0.135,0.139L44.792,53.077z"
     id="path4170" /><path
     d="M40.756,55.985c-0.048-0.048-0.092-0.095-0.137-0.138l-0.327,0.315c0.042,0.044,0.087,0.091,0.134,0.14L40.756,55.985z"
     id="path4172" /><path
     d="M50.987,46.986c-0.045-0.045-0.091-0.091-0.137-0.136l-0.278,0.273c0.044,0.045,0.089,0.092,0.136,0.138L50.987,46.986z"
     id="path4174" /><path
     d="M40.978,56.826l0.31-0.303c-0.047-0.048-0.092-0.094-0.136-0.139l-0.324,0.318l0.083,0.062  C40.932,56.785,40.954,56.807,40.978,56.826z"
     id="path4176" /><path
     d="M44.29,52.568c-0.047-0.047-0.093-0.094-0.136-0.138l-0.301,0.291c0.043,0.045,0.089,0.09,0.137,0.138L44.29,52.568z"
     id="path4178" /><path
     d="M42.412,55.416c-0.046-0.046-0.091-0.092-0.136-0.138l-0.291,0.287c0.044,0.045,0.089,0.092,0.135,0.137L42.412,55.416z"
     id="path4180" /><path
     d="M43.191,54.65c-0.046-0.046-0.092-0.092-0.135-0.138l-0.307,0.303c0.045,0.044,0.091,0.09,0.137,0.136L43.191,54.65z"
     id="path4182" /><path
     d="M47.692,50.227c-0.045-0.047-0.091-0.092-0.136-0.138l-0.321,0.317c0.044,0.045,0.089,0.091,0.135,0.138L47.692,50.227z"
     id="path4184" /><path
     d="M46.66,51.241c-0.045-0.048-0.092-0.093-0.135-0.138l-0.249,0.244c0.044,0.045,0.09,0.09,0.137,0.136L46.66,51.241z"
     id="path4186" /><path
     d="M48.694,49.241c-0.046-0.046-0.091-0.092-0.135-0.137l-0.26,0.254c0.044,0.045,0.089,0.092,0.136,0.138L48.694,49.241z"
     id="path4188" /><path
     d="M45.734,52.152c-0.046-0.047-0.093-0.093-0.137-0.138l-0.304,0.3c0.044,0.044,0.089,0.09,0.136,0.138L45.734,52.152z"
     id="path4190" /><path
     d="M49.797,48.157c-0.046-0.047-0.092-0.093-0.135-0.137l-0.273,0.267c0.045,0.044,0.091,0.09,0.137,0.137L49.797,48.157z"
     id="path4192" /><path
     d="M49.337,47.688c-0.049-0.048-0.093-0.094-0.137-0.138l-0.276,0.266c0.043,0.043,0.09,0.09,0.137,0.138L49.337,47.688z"
     id="path4194" /><path
     d="M46.173,50.748c-0.047-0.048-0.092-0.094-0.137-0.139l-0.252,0.244c0.043,0.045,0.089,0.09,0.138,0.138L46.173,50.748z"
     id="path4196" /><path
     d="M50.531,46.534c-0.05-0.049-0.095-0.095-0.138-0.137l-0.274,0.266c0.042,0.044,0.087,0.09,0.135,0.138L50.531,46.534z"
     id="path4198" /><path
     d="M47.213,49.741c-0.047-0.048-0.093-0.093-0.135-0.137l-0.326,0.314c0.044,0.044,0.088,0.09,0.136,0.139L47.213,49.741z"
     id="path4200" /><path
     d="M48.224,48.764c-0.047-0.048-0.093-0.094-0.136-0.138l-0.262,0.253c0.042,0.043,0.087,0.09,0.136,0.138L48.224,48.764z"
     id="path4202" /><path
     d="M45.239,51.651c-0.047-0.049-0.093-0.094-0.136-0.139l-0.307,0.298c0.042,0.044,0.088,0.089,0.136,0.138L45.239,51.651z"
     id="path4204" /><path
     d="M51.803,45.305c-0.048-0.048-0.093-0.094-0.137-0.138l-0.307,0.295c0.045,0.043,0.091,0.089,0.139,0.138L51.803,45.305z"
     id="path4206" /><path
     d="M67.373,30.249c-0.049-0.048-0.094-0.094-0.135-0.138l-0.311,0.297c0.043,0.042,0.09,0.089,0.139,0.138L67.373,30.249z"
     id="path4208" /><path
     d="M67.691,30.57c-0.047-0.047-0.094-0.093-0.137-0.137l-0.305,0.299c0.045,0.045,0.09,0.092,0.135,0.138L67.691,30.57z"
     id="path4210" /><path
     d="M59.742,38.383c-0.047-0.047-0.092-0.093-0.137-0.138l-0.229,0.224c0.045,0.044,0.09,0.091,0.137,0.138L59.742,38.383z"
     id="path4212" /><path
     d="M65.586,32.64c-0.047-0.047-0.096-0.094-0.137-0.138l-0.305,0.299c0.045,0.044,0.09,0.091,0.137,0.137L65.586,32.64z"
     id="path4214" /><path
     d="M63.494,34.694c-0.045-0.047-0.092-0.094-0.135-0.138l-0.328,0.321c0.045,0.044,0.09,0.089,0.137,0.137L63.494,34.694z"
     id="path4216" /><path
     d="M69.961,27.746c-0.047-0.051-0.092-0.097-0.133-0.14l-0.539,0.522c0.043,0.043,0.088,0.089,0.137,0.137L69.961,27.746z"
     id="path4218" /><path
     d="M56.529,41.541c-0.047-0.046-0.092-0.092-0.137-0.138l-0.316,0.311c0.045,0.045,0.092,0.09,0.139,0.137L56.529,41.541z"
     id="path4220" /><path
     d="M69.727,28.57l0.533-0.524c-0.047-0.048-0.094-0.093-0.137-0.137l-0.533,0.522C69.633,28.476,69.68,28.522,69.727,28.57z"
     id="path4222" /><path
     d="M57.996,40.099c-0.047-0.046-0.092-0.093-0.137-0.137l-0.26,0.255c0.047,0.043,0.092,0.088,0.139,0.134L57.996,40.099z"
     id="path4224" /><path
     d="M61.568,36.588c-0.045-0.047-0.092-0.094-0.137-0.138l-0.307,0.303c0.043,0.044,0.088,0.09,0.135,0.137L61.568,36.588z"
     id="path4226" /><path
     d="M68.15,31.645l0.303-0.303c-0.047-0.046-0.09-0.093-0.139-0.139l-0.301,0.304C68.059,31.552,68.105,31.598,68.15,31.645z"
     id="path4228" /><path
     d="M51.916,47.904c-0.048-0.046-0.094-0.092-0.139-0.137l-0.287,0.29c0.043,0.045,0.089,0.092,0.135,0.137L51.916,47.904z"
     id="path4230" /><path
     d="M67.834,31.323l0.305-0.301c-0.047-0.045-0.092-0.092-0.135-0.137l-0.307,0.301C67.742,31.231,67.789,31.277,67.834,31.323z  "
     id="path4232" /><path
     d="M49.631,50.191c-0.046-0.046-0.092-0.094-0.137-0.139l-0.258,0.258c0.046,0.046,0.091,0.092,0.137,0.138L49.631,50.191z"
     id="path4234" /><path
     d="M62.387,37.416c-0.047-0.046-0.092-0.091-0.137-0.138l-0.307,0.307c0.045,0.046,0.09,0.092,0.139,0.138L62.387,37.416z"
     id="path4236" /><path
     d="M50.721,49.1c-0.045-0.047-0.09-0.093-0.136-0.139l-0.267,0.267c0.045,0.045,0.09,0.091,0.136,0.138L50.721,49.1z"
     id="path4238" /><path
     d="M53.15,46.665c-0.045-0.046-0.09-0.092-0.137-0.139l-0.3,0.302c0.046,0.046,0.091,0.091,0.136,0.138L53.15,46.665z"
     id="path4240" /><path
     d="M54.441,45.372c-0.043-0.045-0.09-0.093-0.135-0.138l-0.268,0.269c0.045,0.047,0.09,0.092,0.135,0.138L54.441,45.372z"
     id="path4242" /><path
     d="M43.268,56.289l-0.286,0.286c0.046,0.046,0.091,0.091,0.137,0.138l0.286-0.286C43.359,56.38,43.314,56.335,43.268,56.289z"
     id="path4244" /><path
     d="M46.697,53.128c-0.045-0.045-0.09-0.092-0.136-0.137l-0.301,0.303c0.045,0.046,0.09,0.091,0.135,0.137L46.697,53.128z"
     id="path4246" /><path
     d="M58.848,40.96c-0.045-0.046-0.092-0.091-0.137-0.138l-0.24,0.241c0.047,0.045,0.094,0.09,0.139,0.134L58.848,40.96z"
     id="path4248" /><path
     d="M60.576,39.229c-0.045-0.046-0.09-0.092-0.137-0.138l-0.225,0.225c0.045,0.045,0.09,0.092,0.137,0.138L60.576,39.229z"
     id="path4250" /><path
     d="M48.638,51.185c-0.046-0.046-0.092-0.092-0.136-0.137l-0.32,0.319c0.044,0.046,0.091,0.092,0.135,0.138L48.638,51.185z"
     id="path4252" /><path
     d="M41.659,56.899l-0.298,0.296c0.046,0.045,0.092,0.089,0.139,0.135l0.296-0.294C41.751,56.99,41.704,56.944,41.659,56.899z"
     id="path4254" /><path
     d="M64.295,35.504c-0.045-0.045-0.09-0.092-0.137-0.138l-0.322,0.325c0.045,0.045,0.09,0.091,0.135,0.137L64.295,35.504z"
     id="path4256" /><path
     d="M47.615,52.209c-0.045-0.046-0.091-0.092-0.136-0.139l-0.243,0.243c0.047,0.048,0.09,0.094,0.137,0.139L47.615,52.209z"
     id="path4258" /><path
     d="M42.158,57.402l-0.286,0.285c0.047,0.045,0.093,0.09,0.139,0.134l0.281-0.282C42.246,57.494,42.202,57.448,42.158,57.402z"
     id="path4260" /><path
     d="M70.17,29.018l0.537-0.532c-0.045-0.045-0.092-0.09-0.139-0.135l-0.535,0.529C70.076,28.926,70.125,28.972,70.17,29.018z"
     id="path4262" /><path
     d="M45.765,54.063c-0.046-0.046-0.091-0.092-0.136-0.139l-0.296,0.297c0.045,0.046,0.091,0.092,0.137,0.137L45.765,54.063z"
     id="path4264" /><path
     d="M49.186,49.739c-0.045-0.046-0.091-0.092-0.137-0.138l-0.258,0.256c0.045,0.047,0.089,0.092,0.134,0.139L49.186,49.739z"
     id="path4266" /><path
     d="M46.231,52.657c-0.045-0.047-0.091-0.094-0.135-0.139l-0.305,0.3c0.045,0.046,0.09,0.093,0.137,0.139L46.231,52.657z"
     id="path4268" /><path
     d="M50.285,48.654c-0.046-0.046-0.091-0.092-0.136-0.138l-0.27,0.267c0.045,0.045,0.091,0.091,0.135,0.138L50.285,48.654z"
     id="path4270" /><path
     d="M54.029,44.956c-0.045-0.047-0.092-0.092-0.137-0.137l-0.27,0.267c0.045,0.045,0.092,0.091,0.135,0.136L54.029,44.956z"
     id="path4272" /><path
     d="M48.187,50.727c-0.046-0.046-0.092-0.093-0.137-0.138l-0.322,0.318c0.045,0.045,0.09,0.091,0.136,0.138L48.187,50.727z"
     id="path4274" /><path
     d="M51.48,47.474c-0.047-0.047-0.094-0.092-0.139-0.136l-0.283,0.28c0.045,0.045,0.09,0.092,0.135,0.139L51.48,47.474z"
     id="path4276" /><path
     d="M52.73,46.239c-0.047-0.046-0.092-0.092-0.137-0.138l-0.304,0.299c0.045,0.046,0.09,0.091,0.138,0.138L52.73,46.239z"
     id="path4278" /><path
     d="M44.178,55.651c-0.044-0.045-0.089-0.092-0.135-0.138l-0.3,0.303c0.043,0.045,0.089,0.091,0.136,0.136L44.178,55.651z"
     id="path4280" /><path
     d="M47.156,51.744c-0.046-0.047-0.092-0.094-0.136-0.139l-0.246,0.242c0.044,0.046,0.09,0.092,0.135,0.139L47.156,51.744z"
     id="path4282" /><path
     d="M44.943,54.886c-0.044-0.047-0.09-0.093-0.137-0.139l-0.273,0.275c0.043,0.047,0.089,0.093,0.135,0.138L44.943,54.886z"
     id="path4284" /><path
     d="M42.917,55.932c-0.045-0.048-0.091-0.093-0.136-0.14l-0.29,0.286c0.046,0.044,0.091,0.092,0.136,0.138L42.917,55.932z"
     id="path4286" /><path
     d="M70.471,29.322l0.541-0.544c-0.047-0.044-0.094-0.089-0.141-0.133l-0.539,0.539C70.379,29.229,70.424,29.276,70.471,29.322z  "
     id="path4288" /><path
     d="M44.465,54.401c-0.045-0.047-0.09-0.093-0.135-0.139l-0.278,0.272c0.046,0.047,0.091,0.093,0.136,0.139L44.465,54.401z"
     id="path4290" /><path
     d="M45.292,53.584c-0.046-0.047-0.091-0.092-0.136-0.138l-0.298,0.294c0.045,0.046,0.09,0.092,0.137,0.137L45.292,53.584z"
     id="path4292" /><path
     d="M43.695,55.161c-0.046-0.046-0.092-0.093-0.137-0.138l-0.303,0.3c0.044,0.046,0.09,0.092,0.136,0.139L43.695,55.161z"
     id="path4294" /><path
     d="M57.391,42.418c-0.043-0.045-0.09-0.093-0.135-0.139l-0.309,0.31c0.045,0.046,0.092,0.092,0.137,0.138L57.391,42.418z"
     id="path4296" /><path
     d="M55.914,43.898c-0.047-0.046-0.092-0.092-0.137-0.137l-0.311,0.312c0.045,0.045,0.09,0.091,0.137,0.137L55.914,43.898z"
     id="path4298" /><path
     d="M62.029,37.056c-0.045-0.046-0.092-0.093-0.137-0.139l-0.307,0.305c0.045,0.045,0.09,0.091,0.137,0.138L62.029,37.056z"
     id="path4300" /><path
     d="M60.207,38.854c-0.045-0.046-0.092-0.092-0.137-0.139l-0.227,0.226c0.045,0.045,0.092,0.091,0.137,0.137L60.207,38.854z"
     id="path4302" /><path
     d="M63.951,35.157c-0.045-0.046-0.09-0.093-0.135-0.137L63.49,35.34c0.045,0.047,0.09,0.091,0.137,0.139L63.951,35.157z"
     id="path4304" /><path
     d="M58.467,40.574c-0.045-0.045-0.092-0.092-0.137-0.138l-0.25,0.247c0.047,0.045,0.092,0.09,0.141,0.135L58.467,40.574z"
     id="path4306" /><path
     d="M66.037,33.098c-0.047-0.046-0.092-0.093-0.135-0.138l-0.305,0.3c0.045,0.045,0.09,0.091,0.137,0.137L66.037,33.098z"
     id="path4308" /><path
     d="M66.064,33.733l0.303-0.303c-0.047-0.045-0.094-0.092-0.137-0.137l-0.303,0.302C65.975,33.641,66.02,33.686,66.064,33.733z"
     id="path4310" /><path
     d="M55.512,43.493c-0.047-0.047-0.092-0.092-0.137-0.138l-0.316,0.312c0.047,0.045,0.092,0.09,0.139,0.137L55.512,43.493z"
     id="path4312" /><path
     d="M57,42.02c-0.045-0.045-0.09-0.091-0.135-0.137l-0.312,0.309c0.045,0.045,0.09,0.091,0.137,0.138L57,42.02z"
     id="path4314" /><path
     d="M55.814,44.425c0.047,0.045,0.094,0.092,0.137,0.137l0.312-0.313c-0.047-0.045-0.092-0.09-0.137-0.137L55.814,44.425z"
     id="path4316" /><path
     d="M54.393,45.86c0.045,0.046,0.092,0.092,0.137,0.138l0.268-0.271c-0.045-0.046-0.09-0.092-0.135-0.138L54.393,45.86z"
     id="path4318" /><path
     d="M57.291,42.936c0.047,0.045,0.092,0.092,0.137,0.138l0.305-0.309c-0.043-0.046-0.09-0.091-0.135-0.138L57.291,42.936z"
     id="path4320" /><path
     d="M44.131,56.209c0.045,0.047,0.09,0.093,0.136,0.139l0.3-0.302c-0.046-0.046-0.09-0.093-0.137-0.138L44.131,56.209z"
     id="path4322" /><path
     d="M49.608,50.686c0.046,0.047,0.09,0.094,0.135,0.139L50,50.565c-0.045-0.046-0.091-0.093-0.136-0.138L49.608,50.686z"
     id="path4324" /><path
     d="M47.614,52.697c0.045,0.047,0.092,0.092,0.136,0.138l0.242-0.245c-0.046-0.044-0.091-0.091-0.137-0.137L47.614,52.697z"
     id="path4326" /><path
     d="M50.685,49.6c0.045,0.046,0.09,0.092,0.136,0.138l0.265-0.268c-0.046-0.046-0.09-0.092-0.137-0.138L50.685,49.6z"
     id="path4328" /><path
     d="M51.851,48.424c0.045,0.045,0.09,0.092,0.137,0.138l0.293-0.297c-0.045-0.046-0.091-0.091-0.138-0.136L51.851,48.424z"
     id="path4330" /><path
     d="M48.556,51.745c0.046,0.048,0.092,0.093,0.136,0.139l0.319-0.321c-0.044-0.046-0.089-0.093-0.135-0.138L48.556,51.745z"
     id="path4332" /><path
     d="M45.716,54.61c0.046,0.047,0.091,0.092,0.136,0.138l0.294-0.296c-0.044-0.046-0.09-0.093-0.135-0.139L45.716,54.61z"
     id="path4334" /><path
     d="M44.919,55.414c0.045,0.047,0.091,0.094,0.136,0.14l0.274-0.277c-0.046-0.046-0.091-0.093-0.136-0.139L44.919,55.414z"
     id="path4336" /><path
     d="M46.639,53.68c0.046,0.046,0.092,0.092,0.138,0.138l0.3-0.304c-0.046-0.046-0.092-0.092-0.136-0.138L46.639,53.68z"
     id="path4338" /><path
     d="M53.072,47.191c0.047,0.047,0.092,0.092,0.139,0.138l0.299-0.303c-0.045-0.046-0.092-0.092-0.137-0.138L53.072,47.191z"
     id="path4340" /><path
     d="M51.076,49.995c0.045,0.047,0.09,0.094,0.135,0.14l0.264-0.269c-0.044-0.047-0.09-0.093-0.135-0.138L51.076,49.995z"
     id="path4342" /><path
     d="M62.607,38.256c0.045,0.047,0.09,0.093,0.137,0.138l0.303-0.309c-0.045-0.046-0.092-0.091-0.135-0.138L62.607,38.256z"
     id="path4344" /><path
     d="M60.893,40c0.045,0.047,0.092,0.093,0.137,0.138l0.221-0.226c-0.045-0.044-0.088-0.091-0.135-0.137L60.893,40z"
     id="path4346" /><path
     d="M58.816,41.399c0.049,0.047,0.094,0.092,0.139,0.135l0.229-0.231c-0.045-0.046-0.09-0.092-0.135-0.138L58.816,41.399z"
     id="path4348" /><path
     d="M59.176,41.75c0.062,0.058,0.109,0.104,0.139,0.133l0,0l0.223-0.225c-0.045-0.046-0.092-0.092-0.137-0.138L59.176,41.75z"
     id="path4350" /><path
     d="M56.184,44.795c0.047,0.047,0.094,0.092,0.137,0.138l0.309-0.315c-0.045-0.044-0.09-0.09-0.137-0.137L56.184,44.795z"
     id="path4352" /><path
     d="M54.766,46.24c0.049,0.046,0.092,0.091,0.137,0.137l0.27-0.273c-0.047-0.045-0.092-0.09-0.137-0.138L54.766,46.24z"
     id="path4354" /><path
     d="M57.652,43.299c0.047,0.046,0.092,0.092,0.137,0.138l0.303-0.308c-0.045-0.045-0.092-0.091-0.137-0.138L57.652,43.299z"
     id="path4356" /><path
     d="M66.561,34.232c0.045,0.047,0.09,0.094,0.135,0.139l0.299-0.306c-0.045-0.044-0.09-0.09-0.137-0.137L66.561,34.232z"
     id="path4358" /><path
     d="M53.453,47.575c0.047,0.045,0.092,0.092,0.137,0.137l0.299-0.304c-0.045-0.046-0.09-0.091-0.135-0.138L53.453,47.575z"
     id="path4360" /><path
     d="M68.766,32.265l0.299-0.305c-0.047-0.045-0.092-0.091-0.137-0.138l-0.299,0.307C68.672,32.174,68.719,32.219,68.766,32.265z  "
     id="path4362" /><path
     d="M68.455,31.953l0.303-0.304c-0.047-0.046-0.092-0.092-0.137-0.138l-0.301,0.304C68.363,31.861,68.41,31.906,68.455,31.953z"
     id="path4364" /><path
     d="M71.064,29.922l0.555-0.563c-0.047-0.044-0.094-0.088-0.141-0.133l-0.549,0.559C70.975,29.832,71.02,29.878,71.064,29.922z"
     id="path4366" /><path
     d="M70.766,29.622l0.549-0.553c-0.047-0.045-0.092-0.088-0.141-0.134l-0.543,0.549C70.676,29.529,70.721,29.575,70.766,29.622z  "
     id="path4368" /><path
     d="M42.551,57.804l-0.271,0.274c0.046,0.044,0.092,0.089,0.139,0.134l0.27-0.272C42.644,57.894,42.597,57.849,42.551,57.804z"
     id="path4370" /><path
     d="M42.981,58.237l-0.26,0.266c0.045,0.044,0.093,0.09,0.138,0.134l0.258-0.263C43.072,58.328,43.028,58.282,42.981,58.237z"
     id="path4372" /><path
     d="M64.482,36.347c0.047,0.047,0.094,0.092,0.137,0.138l0.32-0.327c-0.045-0.046-0.09-0.091-0.137-0.138L64.482,36.347z"
     id="path4374" /><path
     d="M43.8,57.402c0.047,0.047,0.092,0.092,0.136,0.138l0.282-0.288c-0.044-0.044-0.09-0.091-0.136-0.137L43.8,57.402z"
     id="path4376" /><path
     d="M66.377,34.049l0.301-0.304c-0.045-0.044-0.09-0.092-0.137-0.137L66.24,33.91C66.287,33.958,66.332,34.003,66.377,34.049z"
     id="path4378" /><path
     d="M44.552,56.637c0.047,0.048,0.091,0.093,0.136,0.138l0.298-0.304c-0.044-0.045-0.09-0.091-0.135-0.137L44.552,56.637z"
     id="path4380" /><path
     d="M43.659,56.686l-0.283,0.285c0.044,0.047,0.09,0.094,0.136,0.139l0.283-0.286C43.75,56.779,43.705,56.731,43.659,56.686z"
     id="path4382" /><path
     d="M64.154,36.015c0.045,0.046,0.092,0.093,0.137,0.138l0.322-0.326c-0.045-0.045-0.09-0.09-0.137-0.138L64.154,36.015z"
     id="path4384" /><path
     d="M45.336,55.839c0.045,0.046,0.091,0.092,0.137,0.139l0.272-0.279c-0.045-0.046-0.09-0.091-0.135-0.138L45.336,55.839z"
     id="path4386" /><path
     d="M60.549,39.651c0.045,0.046,0.09,0.093,0.135,0.139l0.223-0.225c-0.045-0.046-0.09-0.091-0.135-0.138L60.549,39.651z"
     id="path4388" /><path
     d="M62.27,37.915c0.047,0.046,0.092,0.092,0.137,0.138l0.305-0.307c-0.045-0.045-0.09-0.092-0.137-0.138L62.27,37.915z"
     id="path4390" /><path
     d="M48.018,53.108c0.045,0.047,0.089,0.094,0.135,0.14L48.396,53c-0.045-0.045-0.091-0.091-0.137-0.139L48.018,53.108z"
     id="path4392" /><path
     d="M47.049,54.094c0.046,0.048,0.091,0.093,0.135,0.138l0.3-0.304c-0.045-0.045-0.091-0.092-0.136-0.139L47.049,54.094z"
     id="path4394" /><path
     d="M46.131,55.029c0.045,0.047,0.09,0.094,0.135,0.139l0.294-0.298c-0.045-0.047-0.09-0.093-0.136-0.138L46.131,55.029z"
     id="path4396" /><path
     d="M52.234,48.815c0.047,0.046,0.092,0.093,0.137,0.138l0.297-0.304c-0.043-0.044-0.089-0.09-0.135-0.137L52.234,48.815z"
     id="path4398" /><path
     d="M48.958,52.152c0.045,0.047,0.091,0.092,0.135,0.138l0.318-0.322c-0.045-0.045-0.089-0.092-0.136-0.139L48.958,52.152z"
     id="path4400" /><path
     d="M50.003,51.087c0.047,0.047,0.091,0.093,0.136,0.138l0.254-0.26c-0.044-0.045-0.089-0.091-0.134-0.138L50.003,51.087z"
     id="path4402" /><path
     d="M45.474,57.575c0.047,0.046,0.093,0.094,0.137,0.137l0.295-0.307c-0.043-0.045-0.089-0.091-0.135-0.138L45.474,57.575z"
     id="path4404" /><path
     d="M58.023,43.67c0.045,0.047,0.09,0.093,0.135,0.138l0.299-0.307c-0.045-0.045-0.09-0.091-0.137-0.138L58.023,43.67z"
     id="path4406" /><path
     d="M71.35,30.213l0.561-0.577c-0.045-0.044-0.092-0.088-0.141-0.135l-0.555,0.574C71.262,30.122,71.305,30.167,71.35,30.213z"
     id="path4408" /><path
     d="M44.733,58.346c0.047,0.048,0.092,0.095,0.137,0.138l0.279-0.29c-0.044-0.044-0.09-0.09-0.136-0.138L44.733,58.346z"
     id="path4410" /><path
     d="M47.038,55.949c0.048,0.048,0.092,0.094,0.135,0.138l0.292-0.301c-0.045-0.045-0.088-0.091-0.137-0.137L47.038,55.949z"
     id="path4412" /><path
     d="M48.894,54.021c0.047,0.049,0.091,0.096,0.134,0.142l0.254-0.266c-0.044-0.044-0.089-0.09-0.137-0.138L48.894,54.021z"
     id="path4414" /><path
     d="M47.948,55.004c0.047,0.048,0.092,0.095,0.135,0.138l0.296-0.308c-0.044-0.046-0.089-0.09-0.136-0.139L47.948,55.004z"
     id="path4416" /><path
     d="M66.871,34.55c0.047,0.046,0.092,0.092,0.137,0.138l0.297-0.307c-0.043-0.042-0.09-0.089-0.137-0.136L66.871,34.55z"
     id="path4418" /><path
     d="M61.24,40.353c0.047,0.047,0.092,0.093,0.137,0.138l0.221-0.226c-0.045-0.046-0.092-0.091-0.137-0.138L61.24,40.353z"
     id="path4420" /><path
     d="M62.943,38.598c0.047,0.046,0.092,0.093,0.137,0.138l0.301-0.311c-0.043-0.045-0.09-0.091-0.135-0.138L62.943,38.598z"
     id="path4422" /><path
     d="M59.543,42.104c0.047,0.045,0.092,0.09,0.139,0.136l0.213-0.22c-0.045-0.045-0.09-0.09-0.137-0.138L59.543,42.104z"
     id="path4424" /><path
     d="M68.928,32.431c0.045,0.047,0.092,0.093,0.135,0.138l0.299-0.307c-0.045-0.046-0.09-0.091-0.137-0.138L68.928,32.431z"
     id="path4426" /><path
     d="M64.809,36.677c0.047,0.047,0.092,0.093,0.135,0.138l0.32-0.33c-0.043-0.044-0.09-0.09-0.139-0.137L64.809,36.677z"
     id="path4428" /><path
     d="M49.835,53.042c0.046,0.047,0.092,0.094,0.137,0.138l0.312-0.326c-0.043-0.045-0.089-0.09-0.136-0.138L49.835,53.042z"
     id="path4430" /><path
     d="M46.252,56.766c0.047,0.049,0.092,0.095,0.136,0.139l0.27-0.281c-0.043-0.044-0.089-0.09-0.135-0.137L46.252,56.766z"
     id="path4432" /><path
     d="M65.195,37.07c0.049,0.049,0.096,0.095,0.137,0.138l0.318-0.33c-0.043-0.042-0.088-0.088-0.137-0.138L65.195,37.07z"
     id="path4434" /><path
     d="M61.646,40.761c0.047,0.049,0.092,0.095,0.135,0.138l0.217-0.226c-0.041-0.043-0.086-0.09-0.133-0.138L61.646,40.761z"
     id="path4436" /><path
     d="M67.252,34.934c0.045,0.048,0.092,0.096,0.135,0.138l0.297-0.307c-0.041-0.042-0.088-0.089-0.137-0.138L67.252,34.934z"
     id="path4438" /><path
     d="M63.34,39c0.047,0.048,0.094,0.093,0.137,0.137l0.301-0.312c-0.043-0.042-0.088-0.088-0.137-0.137L63.34,39z"
     id="path4440" /><path
     d="M50.872,51.965c0.048,0.048,0.094,0.095,0.135,0.136l0.251-0.26c-0.043-0.044-0.088-0.091-0.135-0.137L50.872,51.965z"
     id="path4442" /><path
     d="M69.299,32.805c0.047,0.049,0.094,0.096,0.137,0.138l0.297-0.308c-0.043-0.043-0.09-0.09-0.137-0.138L69.299,32.805z"
     id="path4444" /><path
     d="M71.574,30.439c0.047,0.048,0.094,0.095,0.139,0.138l0.564-0.591c-0.041-0.04-0.088-0.084-0.141-0.133L71.574,30.439z"
     id="path4446" /><path
     d="M54.285,48.415c0.047,0.048,0.092,0.093,0.137,0.138l0.297-0.308c-0.045-0.045-0.09-0.091-0.137-0.139L54.285,48.415z"
     id="path4448" /><path
     d="M53.076,49.671c0.049,0.049,0.092,0.094,0.137,0.139l0.307-0.318c-0.043-0.043-0.09-0.088-0.139-0.137L53.076,49.671z"
     id="path4450" /><path
     d="M51.931,50.863c0.046,0.047,0.093,0.093,0.136,0.138l0.266-0.277c-0.043-0.041-0.088-0.087-0.137-0.137L51.931,50.863z"
     id="path4452" /><path
     d="M59.955,42.519c0.045,0.046,0.09,0.092,0.135,0.139l0.215-0.224c-0.041-0.042-0.088-0.089-0.137-0.137L59.955,42.519z"
     id="path4454" /><path
     d="M55.578,47.071c0.049,0.05,0.094,0.097,0.133,0.14l0.277-0.287c-0.045-0.043-0.092-0.089-0.137-0.137L55.578,47.071z"
     id="path4456" /><path
     d="M58.441,44.094c0.049,0.047,0.094,0.093,0.137,0.137l0.295-0.307c-0.043-0.044-0.09-0.089-0.137-0.138L58.441,44.094z"
     id="path4458" /><path
     d="M56.988,45.604c0.047,0.047,0.094,0.094,0.137,0.138l0.305-0.318c-0.043-0.044-0.088-0.091-0.135-0.138L56.988,45.604z"
     id="path4460" /><path
     d="M43.688,59.432c0.049,0.05,0.095,0.095,0.138,0.138l0.233-0.242c-0.043-0.044-0.089-0.089-0.137-0.138L43.688,59.432z"
     id="path4462" /><path
     d="M48.441,53.546c0.047,0.048,0.092,0.094,0.135,0.139l0.246-0.253c-0.045-0.045-0.089-0.091-0.135-0.138L48.441,53.546z"
     id="path4464" /><path
     d="M50.418,51.508c0.048,0.048,0.094,0.095,0.136,0.138l0.254-0.262c-0.045-0.045-0.092-0.091-0.137-0.139L50.418,51.508z"
     id="path4466" /><path
     d="M51.485,50.41c0.044,0.046,0.089,0.092,0.136,0.138l0.262-0.272c-0.045-0.044-0.09-0.09-0.137-0.137L51.485,50.41z"
     id="path4468" /><path
     d="M47.482,54.533c0.047,0.047,0.092,0.093,0.137,0.138l0.298-0.306c-0.045-0.046-0.091-0.092-0.136-0.138L47.482,54.533z"
     id="path4470" /><path
     d="M44.255,57.862c0.045,0.047,0.091,0.092,0.136,0.137l0.28-0.29c-0.044-0.044-0.09-0.089-0.136-0.137L44.255,57.862z"
     id="path4472" /><path
     d="M43.194,58.955c0.045,0.044,0.092,0.09,0.139,0.135l0.244-0.252c-0.045-0.045-0.091-0.09-0.137-0.136L43.194,58.955z"
     id="path4474" /><path
     d="M46.569,55.475c0.047,0.048,0.092,0.094,0.136,0.139l0.292-0.301c-0.045-0.044-0.09-0.09-0.136-0.138L46.569,55.475z"
     id="path4476" /><path
     d="M52.635,49.223c0.047,0.047,0.093,0.092,0.138,0.139l0.302-0.312c-0.045-0.045-0.092-0.09-0.139-0.136L52.635,49.223z"
     id="path4478" /><path
     d="M45.78,56.289c0.046,0.046,0.091,0.093,0.137,0.138l0.272-0.28c-0.045-0.045-0.092-0.09-0.137-0.138L45.78,56.289z"
     id="path4480" /><path
     d="M45.001,57.093c0.045,0.046,0.091,0.092,0.134,0.139l0.298-0.308c-0.045-0.045-0.09-0.091-0.137-0.137L45.001,57.093z"
     id="path4482" /><path
     d="M49.379,52.58c0.045,0.046,0.091,0.093,0.137,0.138l0.314-0.324c-0.044-0.046-0.089-0.092-0.135-0.14L49.379,52.58z"
     id="path4484" /><path
     d="M56.562,45.176c0.047,0.047,0.092,0.093,0.137,0.137l0.307-0.316c-0.045-0.044-0.09-0.09-0.137-0.137L56.562,45.176z"
     id="path4486" /><path
     d="M55.15,46.631c0.047,0.047,0.092,0.093,0.137,0.139l0.27-0.279c-0.045-0.045-0.09-0.09-0.137-0.137L55.15,46.631z"
     id="path4488" /><path
     d="M53.85,47.974c0.045,0.045,0.09,0.092,0.137,0.138l0.297-0.308c-0.047-0.045-0.092-0.092-0.137-0.137L53.85,47.974z"
     id="path4490" /><path
     d="M80.307,27.907l0.059-0.185l-0.311-0.2l-0.416,0.504c0,0-0.244-0.253,2.178-4.313c2.42-4.06,4.762-7.145,4.762-7.145  l-0.508,0.941l0.594,0.43l0.557,0.103l0.492-0.574c0,0,1.494,0.507,1.018,1.823c-0.477,1.316-1.76,0.308-1.76,0.308l-0.389-0.333  l0.275-0.656l-0.49-0.331l-0.545-0.219l-1.828,2.55l0.699,0.458l0.521-0.024l0.336-0.46c0,0,1.695,0.854,1.182,1.942  c-0.512,1.087-1.979,0.3-1.979,0.3l-0.041-1.089l-0.27-0.22l-0.012-0.084l-0.717-0.368L82.1,23.667c0,0,0.588,0.579,0.607,0.517  s0.262-0.188,0.262-0.188l0.215,0.156l0.504-0.591c0,0,1.783,0.944,1.145,2.067c-0.639,1.121-1.656,0.685-2.205,0.261l0.172-1.034  l-0.303-0.345l-0.697-0.255l-1.443,2.679l0.365,0.365l0.111-0.12l0.475,0.32l0.32-0.649c0,0,1.857,0.771,1.064,1.932  c-0.793,1.162-1.904,0.405-1.904,0.405l-0.041-0.987L80.307,27.907z"
     id="path4492" /></svg>