<?xml version="1.0" encoding="UTF-8" standalone="no"?>
<svg
   xmlns:dc="http://purl.org/dc/elements/1.1/"
   xmlns:cc="http://creativecommons.org/ns#"
   xmlns:rdf="http://www.w3.org/1999/02/22-rdf-syntax-ns#"
   xmlns:svg="http://www.w3.org/2000/svg"
   xmlns="http://www.w3.org/2000/svg"
   xmlns:sodipodi="http://sodipodi.sourceforge.net/DTD/sodipodi-0.dtd"
   xmlns:inkscape="http://www.inkscape.org/namespaces/inkscape"
   version="1.1"
   x="0px"
   y="0px"
   viewBox="0 0 100 125"
   style="enable-background:new 0 0 100 100;"
   xml:space="preserve"
   id="svg3688"
   sodipodi:docname="noun-project-acoustic-guitar-by-marvdrock_cc.svg"
   inkscape:version="0.92.0 r15299"><metadata
     id="metadata3694"><rdf:RDF><cc:Work
         rdf:about=""><dc:format>image/svg+xml</dc:format><dc:type
           rdf:resource="http://purl.org/dc/dcmitype/StillImage" /></cc:Work></rdf:RDF></metadata><defs
     id="defs3692" /><sodipodi:namedview
     pagecolor="#ffffff"
     bordercolor="#666666"
     borderopacity="1"
     objecttolerance="10"
     gridtolerance="10"
     guidetolerance="10"
     inkscape:pageopacity="0"
     inkscape:pageshadow="2"
     inkscape:window-width="1366"
     inkscape:window-height="705"
     id="namedview3690"
     showgrid="false"
     inkscape:zoom="4.192"
     inkscape:cx="50"
     inkscape:cy="62.5"
     inkscape:window-x="-8"
     inkscape:window-y="-8"
     inkscape:window-maximized="1"
     inkscape:current-layer="svg3688" /><path
     d="M95,8.69c0.01001-0.19-0.07001-0.34003-0.10999-0.41003c-0.14001-0.25-0.57001-1-0.67999-1.21997  c-0.12-0.22003-0.25-0.54999-0.30005-1.01001C93.44,6,93.10999,5.88,92.89001,5.76996  c-0.22003-0.10999-0.98004-0.52997-1.23004-0.65997C91.59003,5.07001,91.44,4.98999,91.25,5  c-0.14001,0.01001-0.23999,0.06-0.31,0.08997c-0.82001,0.69-1.64001,1.38-2.47003,2.07001L88.13,6.75L88.62,6.20996  c-0.13-0.14996-0.26001-0.29999-0.38-0.44995C88.15997,5.69,87.90002,5.45996,87.51001,5.45996  c-0.47998,0-0.94,0.38-1.02002,0.86005c-0.07001,0.38,0.12,0.67999,0.17999,0.75995c0.12,0.16003,0.25,0.31006,0.37,0.46002  l0.62-0.39001c0.11005,0.13,0.22003,0.27002,0.35004,0.40002c-0.82001,0.69-1.65002,1.38-2.47998,2.08002l-0.36005-0.42999  l0.48999-0.55005c-0.12994-0.14996-0.25995-0.28998-0.38995-0.44c-0.07001-0.06995-0.33002-0.31-0.72003-0.31  c-0.48999,0-0.94,0.38-1.01996,0.86005c-0.07001,0.38,0.12,0.67999,0.17999,0.76996c0.12,0.15002,0.25,0.29999,0.37,0.46002  l0.62-0.40002C84.82001,9.72998,84.94,9.88,85.06,10.01996c-0.83002,0.70001-1.66998,1.41003-2.51001,2.11005l-0.38-0.46002  L82.65997,11.12c-0.12994-0.15002-0.25995-0.29004-0.38995-0.44c-0.07001-0.07001-0.33002-0.31-0.72003-0.31  c-0.47998,0-0.94,0.38-1.01996,0.85999c-0.07001,0.38,0.12,0.67999,0.17999,0.77002c0.12,0.14996,0.25,0.29999,0.37,0.45996  l0.62-0.39996c0.13,0.14996,0.26001,0.31,0.39001,0.45996c-0.17004,0.14001-0.35004,0.28003-0.52002,0.43005  c-0.28003,0.19-0.35004,0.37-0.37,0.48999c-0.01001,0.16998,0.07001,0.25,0.14996,0.52997c0,0,0.05005,0.21002,0.06,0.56  c0.02002,0.42004-0.41998,1.34003-1.28998,2.31l-0.01001,0.01001l-27.70996,26.94c-0.64001-0.64996-1.26001-1.20001-1.82001-1.66998  c-2.51001-2.08002-5.79999-4.82001-9.32001-4.10999c-1.38,0.26996-2.46002,1.00995-2.87,1.28998  c-1.42999,0.97998-2.13,2.08002-3.06,3.39001C34.15997,44.37,32.81,45.89996,31.60999,47.54999  C27.02002,53.88,15.46002,52.97998,9.31,59.87c-1.48999,1.65997-2.40002,3.47998-2.47998,3.65997  C6.29999,64.60999,5,67.32001,5.19,70.63c0.19,3.41998,1.87,5.76001,4.12,8.88995c1.26001,1.76001,2.65997,3.18005,5.40002,5.97003  C21.37,92.25,23.91998,93.58997,26.12,94.27997c1.63,0.51001,2.97003,0.64001,3.44,0.67999  c0.90997,0.07001,3.71002,0.20001,6.65002-0.96997c4.38-1.75,6.58997-5.39001,7.88-7.5C44.84998,85.25,45.69,83.01996,47.37,78.56  c1.90002-5.04004,2.33002-6.90002,4.35999-9.09003c1.09003-1.19,2.46002-2.26001,3.36005-2.95996  c3.01996-2.38,4.76996-3.02002,5.03998-4.78003c0.01001-0.07001,0.19-1.33997-0.56-2.33002  c-0.63-0.82996-1.41998-0.82996-2.71002-1.38c-0.63-0.26996-2.92999-1.25-3.73999-2.91998  c-0.69-1.39996-0.21002-3.02997,0.27002-4.10999l0.01001-0.02002l29.94-30.94l0.00995-0.01001  c0.02002-0.01996,0.04004-0.03998,0.06-0.06c0.94-0.83997,1.82001-1.27997,2.23004-1.27997c0.34998,0.01001,0.56,0.06,0.56,0.06  c0.27997,0.07001,0.37,0.15997,0.52997,0.14001c0.13-0.02002,0.30005-0.09003,0.48999-0.38  c0.18005-0.22003,0.36005-0.44,0.54004-0.66003l0.46997,0.38l-0.38,0.62c0.15002,0.13,0.31,0.25,0.46002,0.37  c0.09003,0.05005,0.39001,0.24005,0.77002,0.16003c0.47998-0.09003,0.84998-0.54999,0.83997-1.03003  c0-0.38995-0.25-0.64996-0.32001-0.71997c-0.14996-0.13-0.29999-0.25-0.44995-0.38l-0.53003,0.5  c-0.15997-0.12-0.32001-0.25-0.47998-0.38c0.67999-0.84003,1.35999-1.67999,2.02997-2.51001l0.42999,0.35999l-0.38,0.62  c0.15002,0.13,0.31006,0.25,0.46002,0.37006c0.09003,0.04999,0.39001,0.23999,0.77002,0.15997  c0.47998-0.09003,0.84998-0.54999,0.83997-1.03998c0-0.38-0.25-0.64001-0.32001-0.71002c-0.14996-0.13-0.29999-0.25-0.44995-0.38  l-0.53003,0.5C90.84003,14.62,90.70001,14.5,90.54999,14.38c0.67999-0.83002,1.35004-1.66003,2.02002-2.48999l0.40997,0.32996  l-0.38,0.63c0.15002,0.12,0.31,0.23999,0.46002,0.35999c0.09003,0.06,0.39001,0.24005,0.77002,0.17004  c0.47998-0.09003,0.84998-0.55005,0.83997-1.04004c-0.01001-0.38995-0.25-0.64996-0.32001-0.71997  c-0.14996-0.12-0.29999-0.25-0.44995-0.38L93.35999,11.75c-0.13-0.10999-0.26996-0.23004-0.40997-0.33002  c0.65997-0.81,1.31-1.62,1.95996-2.41998C94.95001,8.92999,94.98999,8.82001,95,8.69z M38.65997,75.64996  C38.21002,75.89001,37.78003,76,37.46997,76.06c-1.37994-1.34003-2.37994-1.91003-3.06-2.16998  C34.28003,73.82996,33.87,73.67999,33.31,73.44c-0.69-0.31-1.25-0.59003-1.62-0.79004  c-0.66998-0.65997-1.34003-1.32001-2.01001-1.97998s-1.33997-1.32001-2.01001-1.97998c-0.20001-0.36005-0.5-0.91003-0.81-1.60004  C26.59998,66.52997,26.44,66.13,26.39001,66c-0.28003-0.67999-0.87-1.67004-2.23004-3.02002  c0.05005-0.32001,0.16003-0.73999,0.39001-1.20001c0.34003-0.70001,0.79999-1.15997,1.10999-1.41998L32.85999,67.44L40.06,74.51996  C39.81,74.82996,39.34998,75.29999,38.65997,75.64996z M47.91998,62.02997c-2.63,2.67004-6.92999,2.71002-9.59998,0.08002  c-2.67999-2.62-2.71002-6.91998-0.08002-9.59998c2.62-2.67004,6.91998-2.71002,9.59003-0.08002  C50.51001,55.06,50.53998,59.35999,47.91998,62.02997z"
     id="path3680" /><path
     d="M47,53.27997c-1.06-1.02997-2.45001-1.59998-3.91998-1.59998h-0.04999  c-1.5,0.01001-2.90002,0.60999-3.94,1.66998c-1.05005,1.07001-1.62006,2.47998-1.61005,3.97003  c0.02002,1.48999,0.61005,2.88995,1.67004,3.94c1.06,1.03998,2.44995,1.60999,3.91998,1.60999H43.12  c1.5-0.02002,2.90002-0.60999,3.94-1.67999C49.22998,58.98999,49.20001,55.45001,47,53.27997z M46.64001,60.76996  c-0.94,0.95001-2.19,1.48004-3.52002,1.5c-1.34998,0.01001-2.58997-0.5-3.53998-1.44c-0.96002-0.92999-1.48999-2.17999-1.5-3.50995  c-0.01001-1.34003,0.5-2.60004,1.44-3.55005c0.92999-0.94995,2.17999-1.47998,3.51001-1.48999h0.04999  c1.31,0,2.56,0.51001,3.5,1.42999C48.53998,55.64001,48.57001,58.81,46.64001,60.76996z"
     id="path3682" /></svg>