<?xml version="1.0" encoding="UTF-8" standalone="no"?>
<svg
   xmlns:dc="http://purl.org/dc/elements/1.1/"
   xmlns:cc="http://creativecommons.org/ns#"
   xmlns:rdf="http://www.w3.org/1999/02/22-rdf-syntax-ns#"
   xmlns:svg="http://www.w3.org/2000/svg"
   xmlns="http://www.w3.org/2000/svg"
   xmlns:sodipodi="http://sodipodi.sourceforge.net/DTD/sodipodi-0.dtd"
   xmlns:inkscape="http://www.inkscape.org/namespaces/inkscape"
   version="1.1"
   x="0px"
   y="0px"
   viewBox="0 0 100 125"
   enable-background="new 0 0 100 100"
   xml:space="preserve"
   id="svg16"
   sodipodi:docname="noun-project-guitar-by-Okan-Benn_cc-upright.svg"
   inkscape:version="0.92.0 r15299"><metadata
     id="metadata22"><rdf:RDF><cc:Work
         rdf:about=""><dc:format>image/svg+xml</dc:format><dc:type
           rdf:resource="http://purl.org/dc/dcmitype/StillImage" /><dc:title></dc:title></cc:Work></rdf:RDF></metadata><defs
     id="defs20" /><sodipodi:namedview
     pagecolor="#ffffff"
     bordercolor="#666666"
     borderopacity="1"
     objecttolerance="10"
     gridtolerance="10"
     guidetolerance="10"
     inkscape:pageopacity="0"
     inkscape:pageshadow="2"
     inkscape:window-width="1366"
     inkscape:window-height="705"
     id="namedview18"
     showgrid="false"
     inkscape:zoom="4.192"
     inkscape:cx="9.3272901"
     inkscape:cy="62.5"
     inkscape:window-x="-8"
     inkscape:window-y="-8"
     inkscape:window-maximized="1"
     inkscape:current-layer="svg16" /><path
     d="m 58.359217,95.248267 c 0.364525,-0.0052 0.642523,0.273589 0.647201,0.637301 0.0073,0.365553 -0.272999,0.64333 -0.637742,0.649993 -0.36533,0.0059 -0.640901,-0.274763 -0.647566,-0.639507 -0.0069,-0.363345 0.272556,-0.640533 0.638107,-0.647787 z M 42.170671,96.1758 c 0.0065,0.36614 0.283042,0.644774 0.647787,0.638109 0.364525,-0.0052 0.644772,-0.28304 0.638695,-0.646979 -0.0065,-0.366138 -0.28304,-0.644772 -0.647564,-0.639505 -0.365919,0.0051 -0.644772,0.283042 -0.638918,0.648375 z m 10.972835,-86.5873878 0.0027,2.9571798 0.796249,-0.0235 c 0.09478,-0.327199 0.3259,-0.570517 0.602185,-0.547517 0.363346,-0.0069 0.685989,0.387858 0.691188,0.901993 0.003,0.514504 -0.277331,0.941898 -0.642663,0.947753 -0.281522,0.01914 -0.523444,-0.211772 -0.621141,-0.548694 l -0.795662,0.02428 0.01301,2.765517 0.729708,-0.01473 c 0.09478,-0.327198 0.325677,-0.56912 0.600784,-0.54774 0.365331,-0.0059 0.688785,0.388302 0.692355,0.90362 0.0038,0.513916 -0.277112,0.940501 -0.642662,0.947752 -0.280127,0.01939 -0.522637,-0.21236 -0.619746,-0.548472 l -0.754344,0.03014 0.02202,2.830661 0.77117,-0.0053 c 0.0964,-0.328375 0.327296,-0.570296 0.602184,-0.547518 0.364964,-0.008 0.688196,0.387492 0.692588,0.902216 0.0038,0.513917 -0.27792,0.941087 -0.642666,0.947753 -0.282329,0.01976 -0.523444,-0.211773 -0.620552,-0.547885 l -0.795664,0.02428 0.0015,0.663899 c -0.01345,0.898498 -1.28536,1.488855 -1.234683,2.524943 l 0.977238,39.261963 c 10.904239,-0.565317 16.314016,6.52503 11.152175,17.079883 -1.959333,3.97231 1.795529,6.644624 4.497505,10.67151 1.521311,2.296362 3.149016,4.739152 3.837295,8.63825 1.174772,6.504776 -2.45463,12.247956 -6.061211,15.274926 -3.437478,2.90417 -9.127805,4.08049 -14.555546,4.14152 -8.109238,0.0859 -21.760317,-2.56806 -22.849623,-15.16326 -0.395596,-4.666743 1.855935,-9.150478 4.086142,-12.545811 0.899889,-1.355892 5.796902,-6.984195 4.004299,-10.673036 -1.324214,-2.736219 -2.375276,-5.967548 -2.452675,-8.312995 -0.09702,-2.370746 1.690533,-6.885727 5.708094,-7.919651 0.871331,-0.22642 2.139573,-0.666995 6.871217,-1.332236 L 47.064353,62.706168 47.16719,23.65823 c -0.0058,-0.921595 -1.157908,-1.489956 -1.180029,-2.285981 l -0.01105,-0.879468 -0.771977,0.0059 c -0.09478,0.3272 -0.343534,0.546248 -0.601372,0.546933 -0.364965,0.008 -0.664146,-0.403728 -0.667754,-0.919022 -0.0044,-0.514726 0.294744,-0.916232 0.660076,-0.922086 0.256887,-0.0037 0.524254,0.211184 0.620774,0.546489 l 0.730075,-0.01252 -0.08879,-2.820473 -0.730295,0.01392 c -0.09419,0.328048 -0.344115,0.545477 -0.601591,0.548365 -0.363932,0.0061 -0.663115,-0.405713 -0.668331,-0.919837 -0.003,-0.514505 0.294965,-0.917626 0.660295,-0.92348 0.258063,-0.0021 0.524255,0.211183 0.621143,0.548692 l 0.730294,-0.01391 -0.07816,-2.756505 -0.795438,0.02298 c -0.0964,0.328376 -0.344122,0.545441 -0.601598,0.548329 -0.365551,0.0073 -0.665323,-0.405349 -0.668331,-0.919839 -0.0038,-0.513916 0.295552,-0.916818 0.660297,-0.923481 0.25806,-0.0021 0.523445,0.211771 0.620553,0.547884 l 0.77139,-0.0067 -0.05957,-2.7292172 c -0.04409,-1.8912939 7.433651,-1.7779537 7.425626,-0.3667124 z m 6.552963,84.6524418 -18.188994,0.309292 c -0.131538,0.0214 -0.252904,0.109547 -0.230902,0.241916 l 0.05264,2.922138 c 0.0214,0.131538 0.109547,0.252904 0.240746,0.229281 l 3.693084,-0.05654 c 3.748438,1.343264 7.35556,1.165008 10.870174,-0.205593 l 3.626321,-0.04636 c 0.133751,-0.02176 0.255111,-0.109911 0.232296,-0.2417 l -0.05183,-2.922724 c -0.02275,-0.131774 -0.110971,-0.253116 -0.243539,-0.229726 z M 50.187882,72.194353 c -3.692496,0.05735 -6.642613,3.125317 -6.583871,6.81803 0.05654,3.693085 3.124721,6.641808 6.817221,6.584459 3.693305,-0.05794 6.642614,-3.125316 6.584679,-6.818617 -0.05816,-3.691909 -3.12472,-6.641807 -6.818029,-6.583872 z m 0.03225,1.419055 c -2.921916,0.05124 -5.249935,2.445989 -5.198474,5.366496 0.05205,2.921326 2.447596,5.248763 5.366716,5.197075 2.921108,-0.05066 5.248534,-2.446218 5.197667,-5.365908 -0.05147,-2.920518 -2.444796,-5.248325 -5.365909,-5.197663 z"
     id="path10"
     inkscape:connector-curvature="0" /></svg>